<?xml version="1.0" encoding="UTF-8" standalone="no"?>
<!-- Created with Inkscape (http://www.inkscape.org/) -->

<svg
   width="400"
   height="400"
   viewBox="0 0 100 100"
   version="1.1"
   id="svg1"
   xml:space="preserve"
   sodipodi:docname="new_3.svg"
   inkscape:version="1.4.3 (0d15f75, 2025-12-25)"
   xmlns:inkscape="http://www.inkscape.org/namespaces/inkscape"
   xmlns:sodipodi="http://sodipodi.sourceforge.net/DTD/sodipodi-0.dtd"
   xmlns="http://www.w3.org/2000/svg"
   xmlns:svg="http://www.w3.org/2000/svg"><sodipodi:namedview
     id="namedview1"
     pagecolor="#000000"
     bordercolor="#000000"
     borderopacity="0.25"
     inkscape:showpageshadow="2"
     inkscape:pageopacity="0.0"
     inkscape:pagecheckerboard="false"
     inkscape:deskcolor="#979797"
     inkscape:document-units="mm"
     showgrid="true"
     inkscape:zoom="1.3843855"
     inkscape:cx="102.21141"
     inkscape:cy="171.55626"
     inkscape:window-width="1920"
     inkscape:window-height="991"
     inkscape:window-x="-9"
     inkscape:window-y="-9"
     inkscape:window-maximized="1"
     inkscape:current-layer="g3"><inkscape:grid
       type="axonomgrid"
       id="grid1"
       units="mm"
       originx="0"
       originy="0"
       spacingx="0.94488189"
       spacingy="0.94488189"
       empcolor="#0099e5"
       empopacity="0.30196078"
       color="#0099e5"
       opacity="0.14901961"
       empspacing="5"
       dotted="false"
       gridanglex="30"
       gridanglez="30"
       enabled="true"
       visible="true" /><inkscape:grid
       type="modular"
       id="grid2"
       units="mm"
       originx="0"
       originy="0"
       spacingx="37.795276"
       spacingy="37.795276"
       empcolor="#0047cb"
       empopacity="0.30196078"
       color="#0099e5"
       opacity="0.14901961"
       empspacing="0"
       marginx="0"
       marginy="0"
       gapx="9.4488189"
       gapy="9.4488189"
       enabled="true"
       visible="true" /><inkscape:grid
       type="modular"
       id="grid3"
       units="mm"
       originx="0"
       originy="0"
       spacingx="37.795276"
       spacingy="37.795276"
       empcolor="#0047cb"
       empopacity="0.30196078"
       color="#0099e5"
       opacity="0.14901961"
       empspacing="0"
       marginx="0"
       marginy="0"
       gapx="9.4488189"
       gapy="9.4488189"
       enabled="true"
       visible="true" /></sodipodi:namedview><defs
     id="defs1" /><g
     id="g3"
     transform="matrix(0.06541713,0,0,0.09727825,0.21509736,0.06882206)"><rect
       style="fill:#000000;stroke-width:0.25"
       id="rect1"
       width="100.15748"
       height="100.15748"
       x="0"
       y="-0.18058553"
       transform="matrix(15.286516,0,0,10.27979,-3.2880892,-0.70747634)" /><path
       id="path10"
       d="m 308.68567,652.29932 c -30.19376,-20.8606 -36.77948,-53.32294 -18.15061,-90.66327 0.22895,1.28662 0.48377,1.96405 0.44751,2.62549 -0.8352,15.24926 2.91422,29.33813 11.50919,41.88342 9.36816,13.67383 22.85699,22.08117 38.08176,27.90228 22.80575,8.71973 46.71823,12.46662 70.85684,13.64075 34.41739,1.67425 68.90024,2.00256 103.25622,2.9032 -4.98837,5.81152 -11.18066,11.60669 -15.58041,18.53949 -4.65225,7.33075 -10.35712,9.1156 -18.53128,8.87988 -25.3009,-0.72955 -50.64182,-0.22052 -75.93109,-1.16248 -26.19589,-0.97595 -52.09036,-4.58154 -76.59476,-14.64538 -6.57458,-2.70008 -12.72476,-6.43353 -19.36337,-9.90338 z m 176.8443,-278.86127 c 14.06329,-27.24258 27.91577,-54.17566 41.85669,-81.06293 0.58636,-1.13095 1.9812,-2.60147 3.02289,-2.62045 10.62939,-0.19333 21.26355,-0.11826 32.7633,-0.11826 -6.12933,11.78037 -11.70276,22.86228 -17.60162,33.76819 -33.01605,61.04111 -66.11594,122.03693 -99.16312,183.06125 -1.58313,2.92346 -3.04068,5.9252 -4.38312,8.96707 -6.69476,15.17023 -3.07037,28.07941 11.79349,35.33673 10.33237,5.04468 21.64908,8.65552 32.91861,11.08966 34.07309,7.35962 68.85245,6.80671 103.46805,7.65119 13.41913,0.32739 26.85284,0.0535 40.43646,1.0747 -8.81897,3.33741 -15.61615,10.08613 -26.25946,9.71906 -32.29895,-1.11371 -64.65222,-0.55847 -96.96484,-1.40082 -21.48368,-0.56012 -42.96866,-2.63086 -63.61747,-9.00055 -8.13537,-2.50952 -16.15213,-6.39819 -23.21862,-11.15179 -11.42743,-7.68726 -15.22794,-19.16059 -13.01032,-32.80109 1.69684,-10.43732 6.66098,-19.44818 11.53098,-28.54318 22.07178,-41.22021 44.1546,-82.43448 66.4281,-123.96878 z m -34.0896,35.06256 c -17.46723,32.78375 -34.95899,65.14008 -51.85791,97.80307 -3.99271,7.71719 -6.94635,16.26877 -8.70294,24.78214 -3.32123,16.09686 3.38842,28.79138 16.49362,37.89105 13.24194,9.19458 28.51907,13.35242 44.23559,16.02551 28.22104,4.7998 56.71683,4.841 85.20957,4.9314 16.99853,0.054 33.99707,0.0872 50.9956,0.1289 1.26068,0.003 2.52143,4.9e-4 5.03949,4.9e-4 -1.7052,1.4997 -2.39923,2.276 -3.24261,2.82123 -2.65534,1.71637 -5.73419,2.95599 -7.98932,5.08051 -7.53424,7.09759 -16.50812,7.65087 -26.21881,7.39788 -28.97931,-0.75506 -57.98819,-0.51611 -86.95651,-1.51117 -24.16956,-0.83014 -48.27085,-3.38073 -71.10144,-12.07843 -7.98932,-3.04358 -15.97043,-7.01025 -22.75358,-12.14337 -17.87567,-13.52746 -20.5643,-32.31189 -14.98501,-52.57745 2.53531,-9.20893 6.62006,-18.12888 10.99542,-26.67108 26.24127,-51.23203 52.84485,-102.27832 79.16474,-153.47034 9.12667,-17.75128 17.86627,-35.7038 26.58654,-53.65967 1.3888,-2.85971 2.97763,-3.71792 6.0608,-3.64761 9.64892,0.21994 19.30602,0.0807 30.24063,0.0807 -20.61988,40.04263 -40.82083,79.27176 -61.21387,118.81619 z M 317.5647,597.41894 c -14.89081,-17.75854 -16.6785,-37.79541 -11.83487,-59.12084 4.67145,-20.56733 15.59286,-38.42148 24.77224,-57.04108 30.59186,-62.05289 61.15107,-124.12207 91.551,-186.26907 1.93488,-3.95545 3.90408,-5.57551 8.46011,-5.38389 10.10373,0.42496 20.23761,0.13239 31.19962,0.13239 -4.25412,8.76077 -8.09128,16.9635 -12.18131,25.03818 -32.92565,65.00332 -65.89849,129.98275 -98.85812,194.9689 -5.68735,11.21368 -10.1456,22.80444 -10.85706,35.53503 -1.08761,19.46167 6.29145,35.086 21.71766,46.80585 14.43994,10.97058 31.44027,15.55377 48.89389,18.85456 25.14163,4.75451 50.57074,5.97094 76.07608,6.09588 21.97699,0.10767 43.95498,0.0223 67.08291,0.0223 -4.73193,3.79736 -9.17364,6.60254 -12.64868,10.31299 -6.64587,7.09625 -14.35126,9.08649 -23.97607,8.73993 -32.78019,-1.18048 -65.61478,-0.97138 -98.38001,-2.40424 -24.49588,-1.07129 -48.71243,-4.94861 -71.48138,-14.84497 -11.26233,-4.89508 -21.29358,-11.68311 -29.53601,-21.44196 z"
       style="fill:#ffffff" /><path
       id="path11"
       d="m 705.89832,615.83252 c -24.85358,15.20929 -48.03199,32.06305 -66.84937,53.99365 -5.42139,6.31824 -10.79614,8.37354 -18.60205,8.00568 -11.23218,-0.52948 -22.50775,-0.13526 -33.76483,-0.13526 -0.2779,-0.4298 -0.55585,-0.85961 -0.8338,-1.28942 7.73584,-7.89045 15.12805,-16.15662 23.2716,-23.60108 24.94458,-22.8034 53.69049,-39.96606 84.33429,-53.68493 32.92346,-14.73945 66.50598,-27.99982 99.65918,-42.23578 21.39874,-9.1886 42.7583,-18.57972 60.97388,-33.60913 0.34534,-0.28492 0.91644,-0.29621 2.8053,-0.85969 -1.6529,2.39844 -2.51923,3.96338 -3.67041,5.27894 -13.12781,15.0025 -29.13245,26.28051 -46.69104,35.39428 -28.4914,14.78846 -57.12165,29.30939 -85.64301,44.04053 -5.0199,2.59277 -9.79449,5.66046 -14.98974,8.70221 z m 22.46936,44.52167 c -5.34327,5.2763 -10.39655,10.34436 -15.53193,15.32769 -0.88775,0.86145 -2.12005,1.93891 -3.19982,1.94617 -17.76972,0.12073 -35.54059,0.0858 -54.83027,0.0858 3.87879,-4.30658 6.71454,-7.64166 9.74457,-10.78998 25.91974,-26.93201 56.54425,-47.40527 89.297,-64.95227 21.26593,-11.39307 42.896,-22.17401 63.63861,-34.45264 13.53058,-8.00946 25.93921,-17.98181 38.47546,-27.56531 4.14051,-3.16516 7.58686,-7.54223 10.52893,-11.9176 11.44129,-17.01547 9.05683,-35.69507 -6.08941,-49.44473 -10.85321,-9.85266 -23.5918,-16.78757 -36.9245,-22.51569 -21.54248,-9.25525 -43.35779,-17.87561 -64.90009,-27.13128 -13.46588,-5.78556 -26.57239,-12.3678 -37.68274,-22.22742 -14.59607,-12.953 -16.16479,-29.49494 -3.89233,-44.73129 10.07959,-12.51386 23.72394,-20.30057 38.03052,-26.82941 30.73193,-14.02448 63.216,-22.67606 96.03796,-29.99323 24.50946,-5.46404 49.09882,-10.77447 73.88062,-14.72219 11.60107,-1.84809 23.7406,-0.31632 35.78936,0.2648 -8.01202,2.40735 -16.02679,4.80578 -24.03576,7.22348 -39.96033,12.06292 -80.03876,23.7536 -119.8205,36.37945 -16.29718,5.17237 -32.25116,11.89048 -45.88397,22.6496 -4.87549,3.84778 -9.47394,8.5036 -12.86755,13.6658 -5.20874,7.92322 -4.06128,15.22452 2.14422,22.43665 8.03082,9.33352 18.58624,15.21649 29.58393,19.95804 23.20544,10.00476 46.8045,19.09472 70.03723,29.03848 15.44726,6.61148 30.63727,13.83642 43.52008,25.05398 23.30932,20.29636 25.69031,48.36625 5.75006,72.05729 -12.37964,14.70819 -27.7168,26.01141 -44.18042,35.54602 -26.77436,15.50586 -54.15955,29.95636 -80.94513,45.44336 -19.76782,11.4295 -38.36884,24.6604 -55.67413,40.19641 z m 70.32788,-144.77497 c 6.06201,-9.07116 5.65075,-16.31521 -3.27228,-21.63586 -12.50665,-7.45743 -25.6991,-13.93103 -39.0733,-19.72974 -22.72205,-9.85168 -45.97058,-18.4895 -68.68848,-28.35019 -12.12726,-5.26385 -22.62988,-13.31387 -31.6651,-23.14257 -15.76581,-17.15036 -18.31439,-40.35236 -6.49097,-60.47254 9.60486,-16.34473 23.96955,-27.48746 40.26178,-36.38861 26.86725,-14.67865 55.99005,-22.67941 85.75641,-28.86942 33.76062,-7.02069 67.84711,-9.91989 102.2868,-9.15457 5.57373,0.12384 11.15259,0.0174 17.14411,0.0174 -14.8924,2.74383 -29.38232,5.18704 -43.77448,8.1112 -32.47113,6.59736 -64.76519,13.92164 -95.7528,25.99152 -16.49475,6.42477 -32.48346,13.86316 -46.24878,25.25638 -11.78888,9.75741 -20.64447,21.30899 -21.15808,37.46548 -0.29615,9.31623 3.3399,17.18732 9.31323,24.09675 9.13281,10.56405 20.71698,17.83148 33.30682,23.28237 22.1203,9.57721 44.59503,18.33487 66.72937,27.88092 10.8197,4.66635 21.47315,9.87143 31.68445,15.73395 5.51538,3.16654 10.41663,7.79599 14.75427,12.53491 7.88288,8.61219 8.30402,19.40394 0.39459,28.01477 -5.53845,6.02955 -12.25293,11.32404 -19.26782,15.58875 -22.75146,13.83185 -48.03241,22.02392 -72.81592,31.23798 -35.24237,13.10241 -70.69146,25.68744 -103.59649,44.25292 -31.58753,17.82221 -60.26856,39.21558 -83.39173,67.50721 -1.02618,1.25549 -2.89056,2.57269 -4.37872,2.58929 -16.4541,0.18378 -32.91095,0.1156 -50.72153,0.1156 4.52244,-5.55066 8.26511,-10.4776 12.34903,-15.10321 28.90961,-32.74353 64.27558,-56.65832 103.36713,-75.49328 36.40222,-17.53919 75.09467,-28.83344 113.13525,-41.94623 14.59058,-5.02942 28.9079,-10.99176 42.95252,-17.39972 6.06183,-2.76575 11.11597,-7.74005 16.86072,-11.99146 z"
       style="fill:#ffffff" /><path
       id="path12"
       d="m 1137.5889,401.59259 c -7.9876,8.65454 -15.7342,17.0502 -23.9267,25.92923 -3.9705,-11.05765 -7.7879,-21.44473 -11.3438,-31.92059 -0.4118,-1.21295 0.1412,-3.4093 1.0647,-4.3245 28.7038,-28.44751 55.7419,-58.71246 89.0161,-82.20495 13.7507,-9.70835 28.5903,-17.34677 45.4177,-19.40293 9.7134,-1.18686 19.6903,-0.21542 29.511,-0.21542 -7.9384,4.05096 -16.0762,7.67465 -23.6869,12.18713 -22.2748,13.20703 -40.4989,31.29773 -58.3539,49.7193 -15.9874,16.49475 -31.6509,33.30359 -47.6982,50.23273 z m -7.9058,67.84515 c -3.2162,-8.26727 -6.1865,-16.21624 -9.4125,-24.06009 -1.2213,-2.96981 -0.9339,-5.07278 1.3422,-7.50637 12.9735,-13.87107 25.5812,-28.08799 38.6888,-41.82895 19.0887,-20.0109 37.9612,-40.27631 57.9241,-59.39078 18.5448,-17.75681 38.6279,-33.70859 63.5158,-42.33746 13.9845,-4.84864 28.2199,-4.83362 44.0653,-4.14868 -5.0516,2.85287 -8.9434,4.91577 -12.7034,7.19625 -24.8566,15.07602 -46.3362,34.30182 -66.0132,55.4393 -37.6901,40.48737 -74.8706,81.44913 -112.2643,122.21244 -0.6618,0.72146 -1.3441,1.42434 -2.4312,2.57431 -0.9627,-2.92057 -1.7652,-5.3552 -2.7116,-8.14997 z m -50.3817,129.96924 c -9.9927,25.0954 -19.8076,49.84449 -29.7907,74.52576 -0.5919,1.46374 -2.5106,3.36816 -3.8504,3.39905 -11.6463,0.26819 -23.3012,0.1546 -35.4009,0.1546 2.6998,-6.88019 5.2885,-13.63068 7.9895,-20.33588 19.2072,-47.68017 38.2035,-95.44751 57.7872,-142.97265 6.8139,-16.53559 6.76,-32.11802 0.1899,-48.80707 -22.7249,-57.72354 -44.7374,-115.72754 -67.0088,-173.62946 -0.1681,-0.43686 -0.1657,-0.93921 -0.3474,-2.05005 9.5847,0 18.9989,0.005 28.4129,-0.001 11.0744,-0.008 11.0547,-0.005 15.0303,10.41602 19.8706,52.08511 39.76,104.16311 59.6161,156.25372 1.5406,4.04175 2.8629,8.16635 4.3114,12.24368 4.457,12.54682 4.5766,24.71063 -0.5724,37.42246 -12.4915,30.8381 -24.2013,61.99283 -36.3667,93.38119 z m -82.36268,73.62769 c -0.98596,3.47864 -2.74243,4.81927 -6.24988,4.72577 -9.79437,-0.26081 -19.60028,-0.0906 -30.12451,-0.0906 3.1311,-7.68646 6.01734,-14.83331 8.95007,-21.96106 19.80915,-48.14362 39.5203,-96.328 59.5128,-144.39539 5.6051,-13.47638 5.9135,-26.20935 0.2938,-40.04809 -20.8375,-51.31308 -40.94014,-102.92459 -61.29915,-154.43183 -1.1593,-2.93301 -2.14368,-5.93518 -3.32739,-9.23373 -4.21552,2.6088 -8.2497,5.10535 -12.29926,7.61145 13.32947,33.46277 26.61719,66.79572 39.88434,100.13684 7.56555,19.01264 14.82036,38.15512 22.74546,57.01633 5.0055,11.91287 5.3457,23.39282 0.411,35.33334 -14.0437,33.98209 -27.88931,68.04605 -41.80435,102.08133 -8.75311,21.40949 -17.5415,42.80493 -26.17242,64.26367 -1.10712,2.75263 -2.52582,3.82288 -5.48999,3.71607 -5.8197,-0.20954 -11.65222,-0.0616 -18.32672,-0.0616 1.63,-4.10571 3.01196,-7.72534 4.49585,-11.30273 16.1867,-39.0235 32.44873,-78.01593 48.55847,-117.07111 6.53009,-15.83117 12.80102,-31.77038 19.06335,-47.71011 2.91175,-7.41162 2.79316,-14.69184 -0.24164,-22.3154 -20.79303,-52.23389 -41.34338,-104.56439 -61.96173,-156.8678 -0.90838,-2.30432 -1.71869,-4.64728 -2.7893,-7.55536 5.99365,-2.96448 11.88781,-5.90982 17.80822,-8.80142 10.31366,-5.03741 20.50568,-10.36288 31.04285,-14.88174 3.58032,-1.5354 8.05408,-1.29261 12.10553,-1.20585 0.99054,0.0212 2.23383,2.50764 2.84143,4.06348 16.70775,42.77945 33.34205,85.58753 50.00305,128.38519 6.0367,15.50684 11.9885,31.0485 18.2053,46.48304 5.1427,12.76773 5.8883,25.35147 0.6314,38.36288 -15.4575,38.25952 -30.6341,76.63257 -45.9657,114.94312 -6.738,16.83697 -13.5849,33.63037 -20.50088,50.8114 z"
       style="fill:#ffffff" /></g></svg>
