<svg width="200" height="200" version="1.1" xmlns="http://www.w3.org/2000/svg" desc="Created with imagetracer.js version 1.2.6" ><path fill="rgb(37,50,110)" stroke="rgb(37,50,110)" stroke-width="1" opacity="0.6823529411764706" d="M 0 0 L 21 0.5 L 12 4 Q 13.1 6.7 10.5 6 L 6 12 Q 3.3 10.9 4 13.5 L 0.5 21 L 0 0 Z " /><path fill="rgb(37,50,110)" stroke="rgb(37,50,110)" stroke-width="1" opacity="0.6823529411764706" d="M 179.5 0 L 200 0 L 200 20.5 L 199 20.5 Q 197 10.5 189.5 6 L 179.5 1 L 179.5 0 Z " /><path fill="rgb(37,50,110)" stroke="rgb(37,50,110)" stroke-width="1" opacity="0.6823529411764706" d="M 0.5 179 Q 2.9 189.1 10.5 194 L 21 199.5 L 0 200 L 0.5 179 Z " /><path fill="rgb(37,50,110)" stroke="rgb(37,50,110)" stroke-width="1" opacity="0.6823529411764706" d="M 199.5 179 L 200 200 L 179 199.5 L 185.5 197 L 196 187.5 L 199.5 179 Z " /><path fill="rgb(237,230,246)" stroke="rgb(237,230,246)" stroke-width="1" opacity="0.9215686274509803" d="M 185.5 3 L 186.5 5 L 185.5 3 Z " /><path fill="rgb(237,230,246)" stroke="rgb(237,230,246)" stroke-width="1" opacity="0.9215686274509803" d="M 189.5 6 L 191.5 9 L 189.5 6 Z " /><path fill="rgb(237,230,246)" stroke="rgb(237,230,246)" stroke-width="1" opacity="0.9215686274509803" d="M 195.5 13 L 196.5 15 L 195.5 13 Z " /><path fill="rgb(237,230,246)" stroke="rgb(237,230,246)" stroke-width="1" opacity="0.9215686274509803" d="M 197.5 16 L 199 19.5 L 198 19.5 L 197.5 16 Z " /><path fill="rgb(237,230,246)" stroke="rgb(237,230,246)" stroke-width="1" opacity="0.9215686274509803" d="M 117.5 21 L 120 21.5 L 117.5 22 L 117.5 21 Z " /><path fill="rgb(237,230,246)" stroke="rgb(237,230,246)" stroke-width="1" opacity="0.9215686274509803" d="M 59.5 42 L 56.5 46 L 59.5 42 Z " /><path fill="rgb(237,230,246)" stroke="rgb(237,230,246)" stroke-width="1" opacity="0.9215686274509803" d="M 69.5 51 L 68.5 53 L 69.5 51 Z " /><path fill="rgb(237,230,246)" stroke="rgb(237,230,246)" stroke-width="1" opacity="0.9215686274509803" d="M 51.5 56 L 52 60.5 L 51 60.5 L 51.5 56 Z " /><path fill="rgb(237,230,246)" stroke="rgb(237,230,246)" stroke-width="1" opacity="0.9215686274509803" d="M 66.5 63 L 67.5 65 L 66.5 63 Z " /><path fill="rgb(237,230,246)" stroke="rgb(237,230,246)" stroke-width="1" opacity="0.9215686274509803" d="M 54.5 69 L 55.5 71 L 54.5 69 Z " /><path fill="rgb(237,230,246)" stroke="rgb(237,230,246)" stroke-width="1" opacity="0.9215686274509803" d="M 74.5 71 L 75.5 73 L 74.5 71 Z " /><path fill="rgb(237,230,246)" stroke="rgb(237,230,246)" stroke-width="1" opacity="0.9215686274509803" d="M 56.5 72 L 57.5 74 L 56.5 72 Z " /><path fill="rgb(237,230,246)" stroke="rgb(237,230,246)" stroke-width="1" opacity="0.9215686274509803" d="M 78.5 74 L 79.5 76 L 78.5 74 Z " /><path fill="rgb(237,230,246)" stroke="rgb(237,230,246)" stroke-width="1" opacity="0.9215686274509803" d="M 84.5 78 L 85.5 80 L 84.5 78 Z " /><path fill="rgb(237,230,246)" stroke="rgb(237,230,246)" stroke-width="1" opacity="0.9215686274509803" d="M 146.5 111 L 152.5 118 L 146.5 111 Z " /><path fill="rgb(237,230,246)" stroke="rgb(237,230,246)" stroke-width="1" opacity="0.9215686274509803" d="M 138.5 122 L 142.5 127 L 138.5 122 Z " /><path fill="rgb(237,230,246)" stroke="rgb(237,230,246)" stroke-width="1" opacity="0.9215686274509803" d="M 157.5 127 L 158 129.5 L 157 129.5 L 157.5 127 Z " /><path fill="rgb(237,230,246)" stroke="rgb(237,230,246)" stroke-width="1" opacity="0.9215686274509803" d="M 141.5 136 L 138.5 140 L 141.5 136 Z " /><path fill="rgb(237,230,246)" stroke="rgb(237,230,246)" stroke-width="1" opacity="0.9215686274509803" d="M 148.5 148 L 146.5 151 L 148.5 148 Z " /><path fill="rgb(237,230,246)" stroke="rgb(237,230,246)" stroke-width="1" opacity="0.9215686274509803" d="M 56.5 169 L 55.5 171 L 56.5 169 Z " /><path fill="rgb(237,230,246)" stroke="rgb(237,230,246)" stroke-width="1" opacity="0.9215686274509803" d="M 196.5 185 L 195.5 187 L 196.5 185 Z " /><path fill="rgb(237,230,246)" stroke="rgb(237,230,246)" stroke-width="1" opacity="0.9215686274509803" d="M 193.5 189 L 189.5 194 L 193.5 189 Z " /><path fill="rgb(237,230,246)" stroke="rgb(237,230,246)" stroke-width="1" opacity="0.9215686274509803" d="M 13.5 195 L 14.5 197 L 13.5 195 Z " /><path fill="rgb(237,230,246)" stroke="rgb(237,230,246)" stroke-width="1" opacity="0.9215686274509803" d="M 22.5 199 L 25 199.5 L 22.5 200 L 22.5 199 Z " /><path fill="rgb(137,122,169)" stroke="rgb(137,122,169)" stroke-width="1" opacity="0.996078431372549" d="M 183.5 3 L 184.5 5 L 183.5 3 Z " /><path fill="rgb(137,122,169)" stroke="rgb(137,122,169)" stroke-width="1" opacity="0.996078431372549" d="M 186.5 5 L 190 7.5 L 188.5 8 L 186.5 5 Z " /><path fill="rgb(137,122,169)" stroke="rgb(137,122,169)" stroke-width="1" opacity="0.996078431372549" d="M 192.5 10 L 193.5 12 Q 190.7 12.7 192.5 10 Z " /><path fill="rgb(137,122,169)" stroke="rgb(137,122,169)" stroke-width="1" opacity="0.996078431372549" d="M 122.5 34 L 122 35.5 L 121.5 37 L 121 35.5 L 122.5 34 Z " /><path fill="rgb(137,122,169)" stroke="rgb(137,122,169)" stroke-width="1" opacity="0.996078431372549" d="M 117.5 36 L 120 36.5 L 117.5 37 L 117.5 36 Z " /><path fill="rgb(137,122,169)" stroke="rgb(137,122,169)" stroke-width="1" opacity="0.996078431372549" d="M 86.5 44 L 89.5 44 L 96 47.5 L 94.5 48 L 92.5 47 L 92.5 49 L 79.5 53 L 77.5 52 L 77.5 54 L 70.5 52 L 69 52.5 Q 75.9 46.4 86.5 44 Z " /><path fill="rgb(137,122,169)" stroke="rgb(137,122,169)" stroke-width="1" opacity="0.996078431372549" d="M 71.5 53 L 70.5 55 L 71.5 53 Z " /><path fill="rgb(137,122,169)" stroke="rgb(137,122,169)" stroke-width="1" opacity="0.996078431372549" d="M 65.5 57 L 66 59.5 L 65 59.5 L 65.5 57 Z " /><path fill="rgb(137,122,169)" stroke="rgb(137,122,169)" stroke-width="1" opacity="0.996078431372549" d="M 75.5 71 L 76.5 73 L 75.5 71 Z " /><path fill="rgb(137,122,169)" stroke="rgb(137,122,169)" stroke-width="1" opacity="0.996078431372549" d="M 56.5 73 L 58.5 76 L 56.5 73 Z " /><path fill="rgb(137,122,169)" stroke="rgb(137,122,169)" stroke-width="1" opacity="0.996078431372549" d="M 59.5 79 Q 62.1 78.2 61 81.5 L 64.5 83 L 64.5 82 L 62 80.5 L 63.5 80 Q 67.2 82 65.5 84 L 67.5 85 Q 68.8 82.8 70 85.5 Q 67.8 86.8 70.5 88 L 72.5 87 L 73.5 89 L 72 88.5 Q 71.2 91.1 74.5 90 Q 75.8 87.8 77 90.5 L 77.5 92 L 79.5 92 L 82 93.5 L 82.5 95 L 84 94.5 L 84.5 96 L 86.5 96 L 89 97.5 L 87 98.5 L 89.5 99 L 91 98.5 Q 88.8 99.8 91.5 101 L 94.5 100 L 93.5 102 L 89 103.5 L 95 106.5 L 93.5 107 L 86 102.5 L 87 100.5 L 85 100 Q 86.3 103 82.5 102 L 74 96.5 L 72 92 L 70 92 Q 71.1 89.3 68.5 90 L 64 86.5 L 66 85.5 L 60 81.5 L 59.5 79 Z M 67 86 L 68 88 L 69 88 L 67 86 Z M 75 91 L 73 93 L 75 93 L 75 91 Z M 80 95 L 78 97 L 80 97 L 80 95 Z M 83 97 L 83 100 L 85 99 L 83 97 Z M 88 101 Q 86 104 89 103 L 88 101 Z " /><path fill="rgb(137,122,169)" stroke="rgb(137,122,169)" stroke-width="1" opacity="0.996078431372549" d="M 96.5 101 L 95.5 103 L 96.5 101 Z " /><path fill="rgb(137,122,169)" stroke="rgb(137,122,169)" stroke-width="1" opacity="0.996078431372549" d="M 98.5 102 L 96.5 105 L 95 104.5 L 98.5 102 Z " /><path fill="rgb(137,122,169)" stroke="rgb(137,122,169)" stroke-width="1" opacity="0.996078431372549" d="M 100.5 103 L 99.5 105 L 100.5 103 Z " /><path fill="rgb(137,122,169)" stroke="rgb(137,122,169)" stroke-width="1" opacity="0.996078431372549" d="M 107.5 106 L 106.5 110 Q 103 108 107.5 106 Z " /><path fill="rgb(137,122,169)" stroke="rgb(137,122,169)" stroke-width="1" opacity="0.996078431372549" d="M 96.5 107 L 103 110.5 L 101.5 111 Q 96.9 109.8 96.5 107 Z " /><path fill="rgb(137,122,169)" stroke="rgb(137,122,169)" stroke-width="1" opacity="0.996078431372549" d="M 111.5 108 L 110.5 110 L 109 110.5 L 109.5 112 Q 106.5 110.5 109.5 109 L 111.5 108 Z " /><path fill="rgb(137,122,169)" stroke="rgb(137,122,169)" stroke-width="1" opacity="0.996078431372549" d="M 116.5 110 L 115.5 112 L 114 111.5 L 116.5 110 Z " /><path fill="rgb(137,122,169)" stroke="rgb(137,122,169)" stroke-width="1" opacity="0.996078431372549" d="M 104.5 111 L 111 113.5 L 108.5 114 L 104.5 112 L 104.5 111 Z " /><path fill="rgb(137,122,169)" stroke="rgb(137,122,169)" stroke-width="1" opacity="0.996078431372549" d="M 112.5 114 L 120 117.5 L 118.5 118 L 112.5 115 L 112.5 114 Z " /><path fill="rgb(137,122,169)" stroke="rgb(137,122,169)" stroke-width="1" opacity="0.996078431372549" d="M 124.5 114 L 125 116.5 L 123.5 118 L 121.5 119 L 122.5 117 L 124 116.5 L 122 115.5 L 124.5 114 Z " /><path fill="rgb(137,122,169)" stroke="rgb(137,122,169)" stroke-width="1" opacity="0.996078431372549" d="M 128.5 116 L 127.5 118 L 128.5 116 Z " /><path fill="rgb(137,122,169)" stroke="rgb(137,122,169)" stroke-width="1" opacity="0.996078431372549" d="M 130.5 117 Q 133.5 118.5 130.5 120 L 130.5 117 Z " /><path fill="rgb(137,122,169)" stroke="rgb(137,122,169)" stroke-width="1" opacity="0.996078431372549" d="M 133.5 119 L 134.5 121 L 133.5 119 Z " /><path fill="rgb(137,122,169)" stroke="rgb(137,122,169)" stroke-width="1" opacity="0.996078431372549" d="M 125.5 120 L 128 121.5 L 126.5 122 L 125.5 120 Z " /><path fill="rgb(137,122,169)" stroke="rgb(137,122,169)" stroke-width="1" opacity="0.996078431372549" d="M 132.5 121 L 136 123.5 L 134.5 124 L 132.5 121 Z " /><path fill="rgb(137,122,169)" stroke="rgb(137,122,169)" stroke-width="1" opacity="0.996078431372549" d="M 136.5 121 L 142.5 128 Q 140.3 123.8 138 128.5 L 140.5 130 L 142 129.5 L 141 131.5 L 141.5 133 L 136.5 127 Q 137.7 129.3 139 126.5 L 136.5 121 Z " /><path fill="rgb(137,122,169)" stroke="rgb(137,122,169)" stroke-width="1" opacity="0.996078431372549" d="M 130.5 123 L 136 125.5 L 133.5 126 L 130.5 123 Z " /><path fill="rgb(137,122,169)" stroke="rgb(137,122,169)" stroke-width="1" opacity="0.996078431372549" d="M 143.5 130 L 144 132.5 L 143 132.5 L 143.5 130 Z " /><path fill="rgb(137,122,169)" stroke="rgb(137,122,169)" stroke-width="1" opacity="0.996078431372549" d="M 155.5 141 L 155 142.5 L 152.5 148 Q 151.3 145.8 150 148.5 L 152 149.5 L 150 150 L 148.5 154 L 147 153.5 L 143.5 158 L 125.5 168 L 125.5 166 L 123.5 167 L 123 165.5 L 124.5 163 L 126.5 164 L 126.5 162 L 131.5 160 L 133 160.5 L 134.5 158 L 144.5 152 L 147 153 L 147 150.5 L 155.5 141 Z " /><path fill="rgb(137,122,169)" stroke="rgb(137,122,169)" stroke-width="1" opacity="0.996078431372549" d="M 120.5 169 L 122 169.5 L 116.5 172 L 116.5 171 L 120.5 169 Z " /><path fill="rgb(137,122,169)" stroke="rgb(137,122,169)" stroke-width="1" opacity="0.996078431372549" d="M 3.5 183 L 6 186.5 L 4 185.5 L 3.5 183 Z " /><path fill="rgb(137,122,169)" stroke="rgb(137,122,169)" stroke-width="1" opacity="0.996078431372549" d="M 60.5 183 L 62 185.5 L 61 185.5 L 60.5 183 Z " /><path fill="rgb(137,122,169)" stroke="rgb(137,122,169)" stroke-width="1" opacity="0.996078431372549" d="M 6.5 188 L 8.5 191 L 6.5 188 Z " /><path fill="rgb(137,122,169)" stroke="rgb(137,122,169)" stroke-width="1" opacity="0.996078431372549" d="M 10.5 192 L 11.5 194 L 10.5 192 Z " /><path fill="rgb(136,119,194)" stroke="rgb(136,119,194)" stroke-width="1" opacity="0.996078431372549" d="M 170 0 L 173 0.5 L 172.5 2 L 176.5 3 L 178.5 2 L 187 6.5 L 186.5 8 Q 188.8 7.3 188 9.5 L 190.5 13 L 187 10.5 L 185.5 8 L 184 8.5 L 183.5 7 L 181 10.5 L 185 13.5 L 183.5 13 L 180 14 L 178.5 17 L 176 17 Q 177.1 19.7 174.5 19 L 170 22 L 170 24 L 168 24 L 168 26 Q 165.3 24.9 166 27.5 L 163 32 L 160 32 Q 161.5 35.8 158.5 35 L 154 38 L 154 40 L 152 40 L 152 42 Q 149.3 40.9 150 43.5 L 147 48 L 144 48 Q 145.5 51.7 142.5 51 L 138 54 L 138 56 L 136 56 L 136 58 Q 133.3 56.9 134 59.5 L 131 64 L 128 64 Q 129.5 67.8 126.5 67 L 122 70 L 122 72 L 120 72 L 120 74 Q 117.3 72.9 118 75.5 L 113.5 82 Q 110.9 81.3 112 84 L 107.5 84 L 104 86.5 L 105.5 89 L 96 83.5 L 95.5 82 Q 94 84.5 92.5 81 Q 90.3 81.8 91 79.5 L 90 77 L 92.5 76 Q 93.8 78.3 95 75.5 Q 94.3 73.3 96.5 74 Q 101.3 71.5 99.5 69 Q 101.8 69.8 101 67.5 L 102.5 68 L 108 62.5 L 109.5 60 L 116 54.5 L 115.5 53 Q 117.8 53.8 117 51.5 Q 119.8 53.4 122.5 48 L 125 47.5 L 118 46.5 L 123.5 45 L 126 46 Q 124.5 42.3 127.5 43 L 132 38.5 L 131.5 37 Q 133.8 37.8 133 35.5 L 134.5 36 L 140 30.5 L 141.5 28 L 148 22.5 L 147.5 21 Q 149.8 21.8 149 19.5 L 150.5 20 L 156 14.5 L 157.5 12 L 162 8.5 Q 161.3 6.3 163.5 7 L 167.5 2 L 170.5 3 L 170 1.5 L 170 0 Z M 178 12 L 177 14 L 180 13 L 178 12 Z " /><path fill="rgb(136,119,194)" stroke="rgb(136,119,194)" stroke-width="1" opacity="0.996078431372549" d="M 189.5 8 Q 191.8 7.3 191 9.5 L 191.5 11 L 189.5 8 Z " /><path fill="rgb(136,119,194)" stroke="rgb(136,119,194)" stroke-width="1" opacity="0.996078431372549" d="M 184.5 10 Q 186.8 9.3 186 11.5 L 184.5 10 Z " /><path fill="rgb(136,119,194)" stroke="rgb(136,119,194)" stroke-width="1" opacity="0.996078431372549" d="M 126.5 39 L 129 39.5 L 126.5 40 L 126.5 39 Z " /><path fill="rgb(136,119,194)" stroke="rgb(136,119,194)" stroke-width="1" opacity="0.996078431372549" d="M 109.5 90 L 112 91.5 L 110.5 92 L 109.5 90 Z " /><path fill="rgb(136,119,194)" stroke="rgb(136,119,194)" stroke-width="1" opacity="0.996078431372549" d="M 72.5 95 L 72.5 97 L 91 105.5 L 89.5 106 L 86 105 L 86 108 Q 83 107 84 110 L 80 110 L 80 115 L 78.5 115 L 74 118 L 74 120 L 72 120 L 72 122 Q 69.3 120.9 70 123.5 L 67 128 L 64 128 Q 65.5 131.8 62.5 131 L 58 134 L 58 136 L 56 136 L 56 138 Q 53.3 136.9 54 139.5 L 51 144 L 48 144 Q 49.5 147.8 46.5 147 L 42 150 L 42 152 L 40 152 L 40 154 Q 37.3 152.9 38 155.5 L 35 160 L 32 160 Q 33.5 163.7 30.5 163 L 26 166 L 26 168 L 24 168 L 24 170 Q 21.3 168.9 22 171.5 L 19 176 Q 15.3 174.5 16 177.5 L 16 179.5 Q 16.8 181.8 14.5 181 L 13 183.5 L 13.5 185 L 12.5 184 L 10 185.5 Q 12.7 184.8 12 180.5 L 9.5 182 L 7 183.5 L 9 184.5 L 7 185.5 L 6.5 184 L 5.5 186 L 4 182.5 L 5 180.5 L 3 180.5 L 1.5 172 L 0 172.5 L 0.5 168 L 1 170 Q 4 171.3 3 167.5 L 5.5 164 L 12 158.5 L 13.5 156 L 20 150.5 L 19.5 149 Q 21.8 149.8 21 147.5 L 22.5 148 L 28 142.5 L 29.5 140 L 36 134.5 L 35.5 133 Q 37.8 133.8 37 131.5 L 38.5 132 L 44 126.5 L 45.5 124 L 52 118.5 L 51.5 117 Q 53.8 117.8 53 115.5 L 54.5 116 L 60 110.5 L 61.5 108 L 64 106.5 Q 62.8 102.8 66.5 104 L 70 98.5 L 69 96 L 72.5 95 Z M 12 177 L 12 180 L 14 179 Q 15 176 12 177 Z " /><path fill="rgb(136,119,194)" stroke="rgb(136,119,194)" stroke-width="1" opacity="0.996078431372549" d="M 6.5 187 L 9 187.5 L 8 188.5 L 12.5 194 L 9 192 L 6.5 187 Z " /><path fill="rgb(84,82,171)" stroke="rgb(84,82,171)" stroke-width="1" opacity="0.996078431372549" d="M 26.5 0 L 129.5 0 L 130 2 L 124 5.5 L 122 10 L 116 13.5 L 115 17 Q 112.3 15.9 113 18.5 L 115 18.5 Q 114.2 21.1 117.5 20 L 117.5 21 L 113 20 Q 114.3 23.3 109.5 22 L 105.5 23 L 104 22.5 Q 104.9 25.5 100.5 24 L 77.5 31 Q 64.9 35.9 56 44.5 L 51 53.5 L 51 63.5 L 55 71.5 L 55 74.5 L 54 78 L 50 80.5 Q 50.8 82.8 48.5 82 L 44 85.5 L 42 90 L 36 93.5 L 34 98 L 28 101.5 L 26 106 L 20 109.5 L 18 114 L 12 117.5 L 10 122 L 2 127.5 Q 3 131.3 0 130 L 0 26.5 Q 2.3 12.8 11.5 6 L 14 6 Q 12.9 3.3 15.5 4 L 18.5 2 Q 20 4.5 21.5 1 L 23.5 2 L 26.5 0 Z M 111 19 Q 111 23 113 20 L 111 19 Z M 106 20 L 106 22 L 109 22 L 106 20 Z " /><path fill="rgb(84,82,171)" stroke="rgb(84,82,171)" stroke-width="1" opacity="0.996078431372549" d="M 67.5 58 L 68.5 60 L 71 58.5 L 72 61.5 L 70.5 64 L 69.5 62 L 69 64.5 L 70.5 67 Q 66.4 65 66 59.5 L 67.5 58 Z " /><path fill="rgb(84,82,171)" stroke="rgb(84,82,171)" stroke-width="1" opacity="0.996078431372549" d="M 72.5 68 L 75 68.5 Q 72.9 71.8 72.5 68 Z " /><path fill="rgb(84,82,171)" stroke="rgb(84,82,171)" stroke-width="1" opacity="0.996078431372549" d="M 91.5 175 L 94 175.5 L 91.5 176 L 91.5 175 Z " /><path fill="rgb(84,82,171)" stroke="rgb(84,82,171)" stroke-width="1" opacity="0.996078431372549" d="M 80.5 178 L 83 178.5 L 80.5 179 L 80.5 178 Z " /><path fill="rgb(84,82,171)" stroke="rgb(84,82,171)" stroke-width="1" opacity="0.996078431372549" d="M 76.5 179 L 79 179.5 L 76.5 180 L 76.5 179 Z " /><path fill="rgb(84,82,171)" stroke="rgb(84,82,171)" stroke-width="1" opacity="0.996078431372549" d="M 72.5 180 L 75 180.5 L 72.5 181 L 72.5 180 Z " /><path fill="rgb(254,247,254)" stroke="rgb(254,247,254)" stroke-width="1" opacity="0.9176470588235294" d="M 194.5 11 L 195.5 13 L 194.5 11 Z " /><path fill="rgb(254,247,254)" stroke="rgb(254,247,254)" stroke-width="1" opacity="0.9176470588235294" d="M 4.5 187 L 5.5 189 L 4.5 187 Z " /><path fill="rgb(254,247,254)" stroke="rgb(254,247,254)" stroke-width="1" opacity="0.9176470588235294" d="M 195.5 187 L 194.5 189 L 195.5 187 Z " /><path fill="rgb(150,125,207)" stroke="rgb(150,125,207)" stroke-width="1" opacity="0.996078431372549" d="M 187.5 12 Q 189.8 11.3 189 13.5 L 187.5 12 Z " /><path fill="rgb(150,125,207)" stroke="rgb(150,125,207)" stroke-width="1" opacity="0.996078431372549" d="M 192.5 12 L 194.5 15 L 196 14.5 L 195.5 16 L 197 16.5 L 195.5 17 L 193 16 L 194 20.5 L 192.5 23 L 192 21.5 L 193 18.5 L 192 18.5 L 186 27 L 178 33.5 Q 178.8 35.8 176.5 35 L 170 43 L 162 49.5 Q 162.8 51.8 160.5 51 L 154 59 L 146 65.5 Q 146.8 67.8 144.5 67 L 138 75 L 130 81.5 L 127.5 86 L 122 88 L 120.5 91 L 118.5 88 L 117 87.5 L 121 84.5 L 121.5 86 L 124 83.5 L 124 81.5 L 128.5 76 L 132 73.5 L 136.5 68 L 140 65.5 L 144.5 60 L 148 57.5 L 152.5 52 L 156 49.5 L 160.5 44 L 164 41.5 L 168.5 36 L 172 33.5 L 176.5 28 L 180 25.5 L 184.5 20 L 188 17.5 L 187 15.5 L 188.5 15 L 191.5 16 L 191.5 15 L 190 14.5 L 192 14 L 192.5 12 Z " /><path fill="rgb(150,125,207)" stroke="rgb(150,125,207)" stroke-width="1" opacity="0.996078431372549" d="M 197.5 21 L 198.5 23 L 197.5 21 Z " /><path fill="rgb(150,125,207)" stroke="rgb(150,125,207)" stroke-width="1" opacity="0.996078431372549" d="M 114.5 88 L 119 90.5 L 118 91.5 L 121.5 96 L 119 95.5 Q 121.3 94.3 118.5 93 L 113 91.5 L 116 91 Q 117.1 88.3 114.5 89 L 111.5 90 L 111.5 89 L 114.5 88 Z " /><path fill="rgb(150,125,207)" stroke="rgb(150,125,207)" stroke-width="1" opacity="0.996078431372549" d="M 130.5 100 L 133 101.5 L 131.5 101 L 130.5 100 Z " /><path fill="rgb(150,125,207)" stroke="rgb(150,125,207)" stroke-width="1" opacity="0.996078431372549" d="M 97.5 109 L 102 111.5 L 99 112 Q 100.1 109.3 97.5 110 L 98 111.5 Q 96.9 114.8 99.5 114 L 97.5 117 L 95.5 118 L 94.5 117 L 90 121.5 Q 90.8 123.8 88.5 123 L 82 131 L 74 137.5 Q 74.8 139.8 72.5 139 L 66 147 L 58 153.5 Q 58.8 155.8 56.5 155 L 52 159.5 L 52 162 Q 45.2 163 42 169.5 Q 42.8 171.8 40.5 171 L 34 179 L 26 185.5 Q 26.8 187.8 24.5 187 L 21 190.5 L 22 191.5 Q 22.8 193.8 20.5 193 L 16.5 194 L 14.5 194 L 10 190.5 L 10.5 189 L 13.5 193 L 15 192.5 L 12 188.5 L 14 189.5 L 14.5 191 L 16 188 L 20 185.5 L 24.5 180 L 28 177.5 L 32.5 172 L 36 169.5 L 40.5 164 L 44 161.5 L 48.5 156 L 52 153.5 L 56.5 148 L 60 145.5 L 64.5 140 L 68 137.5 L 72.5 132 L 76 129.5 L 80.5 124 L 84 121.5 L 88.5 116 L 92 113.5 Q 91.2 110.9 94.5 112 L 97.5 109 Z " /><path fill="rgb(150,125,207)" stroke="rgb(150,125,207)" stroke-width="1" opacity="0.996078431372549" d="M 15.5 185 L 15 186.5 L 14.5 188 L 14 186.5 L 15.5 185 Z " /><path fill="rgb(150,125,207)" stroke="rgb(150,125,207)" stroke-width="1" opacity="0.996078431372549" d="M 16.5 195 L 20 195.5 L 16.5 196 L 16.5 195 Z " /><path fill="rgb(150,125,207)" stroke="rgb(150,125,207)" stroke-width="1" opacity="0.996078431372549" d="M 21.5 197 L 25 198.5 L 22.5 199 L 21.5 197 Z " /><path fill="rgb(164,131,219)" stroke="rgb(164,131,219)" stroke-width="1" opacity="0.996078431372549" d="M 196.5 24 L 198.5 27 L 200 27.5 L 200 44.5 L 194.5 52 L 189 54.5 L 188 58 L 186 58 Q 187.1 60.7 184.5 60 L 181 62.5 L 178.5 68 L 173 70.5 L 172 74 L 170 74 Q 171.1 76.7 168.5 76 L 165 78.5 L 162.5 84 L 157 86.5 L 156 90 L 154 90 Q 155.1 92.7 152.5 92 L 149 94.5 Q 149.9 97.5 145.5 96 Q 144.3 93.7 143 96.5 L 142 101 L 138 102.5 L 138.5 104 L 134 102 L 133.5 99 L 132.5 101 L 128 98.5 L 128.5 97 L 126.5 98 L 126.5 96 L 123.5 98 L 124 96.5 Q 123.3 94.3 125.5 95 L 127.5 94 L 128.5 95 L 191 32.5 L 192.5 29 Q 195.1 29.8 194 26.5 L 196 26.5 L 196.5 24 Z M 197 27 L 196 30 L 197 30 L 197 27 Z M 130 96 L 131 98 Q 132 95 130 96 Z " /><path fill="rgb(164,131,219)" stroke="rgb(164,131,219)" stroke-width="1" opacity="0.996078431372549" d="M 147.5 97 L 148 100 Q 142.8 101.7 144 98 L 147.5 97 Z " /><path fill="rgb(164,131,219)" stroke="rgb(164,131,219)" stroke-width="1" opacity="0.996078431372549" d="M 141.5 104 L 145 106.5 L 143.5 106 L 141.5 105 L 140 105.5 L 141.5 104 Z " /><path fill="rgb(164,131,219)" stroke="rgb(164,131,219)" stroke-width="1" opacity="0.996078431372549" d="M 146.5 107 L 148 107.5 L 145.5 109 L 146.5 107 Z " /><path fill="rgb(164,131,219)" stroke="rgb(164,131,219)" stroke-width="1" opacity="0.996078431372549" d="M 149.5 108 L 150 109.5 L 149.5 111 L 151 111.5 L 149.5 112 L 148 109.5 L 149.5 108 Z " /><path fill="rgb(164,131,219)" stroke="rgb(164,131,219)" stroke-width="1" opacity="0.996078431372549" d="M 109.5 114 L 115 116.5 L 114.5 118 L 117.5 117 L 125 121.5 L 121 122 L 120.5 120 L 120 122 Q 117 121 118 124 L 115 124 L 115 126 Q 117.7 124.9 117 127.5 L 114.5 132 L 109 134.5 L 108 138 L 106 138 Q 107.1 140.7 104.5 140 L 101 142.5 L 100.5 144 L 96.5 143 L 95 146 Q 100.4 144.5 102 147.5 Q 101.3 150.8 96.5 150 L 94.5 149 L 92 153 L 94 153.5 L 92 154.5 L 94.5 155 L 96.5 154 L 96.5 155 L 95 155.5 L 99 156.5 Q 97.7 159.3 96.5 157 L 93.5 158 L 92 157.5 L 91.5 159 L 91 157 L 88 156.5 L 92 155.5 L 85.5 154 L 83.5 157 Q 86.1 156.3 85 159 L 87.5 159 L 87.5 160 L 84.5 161 L 80.5 160 L 80.5 162 L 78 161.5 L 79 159.5 L 77.5 160 L 76 160.5 L 77 163 L 75 162.5 L 75.5 161 Q 73.3 160.3 74 162.5 L 72.5 162 L 70 162.5 L 70.5 164 L 68.5 163 L 69.5 166 Q 67.8 162.3 66 165.5 L 65.5 167 L 64 164 L 66 163.5 L 65 161 L 62 161.5 L 62.5 163 L 58 161.5 L 64.5 159 L 97.5 126 L 101 125 L 101 122.5 L 104 118 L 106 117.5 L 105.5 116 L 111.5 117 L 111.5 116 L 109.5 114 Z " /><path fill="rgb(164,131,219)" stroke="rgb(164,131,219)" stroke-width="1" opacity="0.996078431372549" d="M 152.5 115 L 153.5 117 Q 150.7 117.7 152.5 115 Z " /><path fill="rgb(164,131,219)" stroke="rgb(164,131,219)" stroke-width="1" opacity="0.996078431372549" d="M 155.5 120 L 156.5 122 L 155.5 120 Z " /><path fill="rgb(164,131,219)" stroke="rgb(164,131,219)" stroke-width="1" opacity="0.996078431372549" d="M 126.5 122 L 128 122.5 L 122.5 125 L 120.5 124 L 119 124.5 L 121.5 123 L 123.5 123 L 126.5 122 Z " /><path fill="rgb(164,131,219)" stroke="rgb(164,131,219)" stroke-width="1" opacity="0.996078431372549" d="M 130.5 124 L 131.5 126 Q 132.8 123.7 134 126.5 L 133.5 128 L 131.5 127 L 130 127.5 L 130 125.5 L 130.5 124 Z " /><path fill="rgb(164,131,219)" stroke="rgb(164,131,219)" stroke-width="1" opacity="0.996078431372549" d="M 124.5 126 L 127.5 127 L 129 126.5 Q 127.7 129.3 126.5 127 Q 123.5 127.5 124.5 126 Z " /><path fill="rgb(164,131,219)" stroke="rgb(164,131,219)" stroke-width="1" opacity="0.996078431372549" d="M 139 132 L 142 133.5 Q 143.1 136.8 140.5 136 L 139 136.5 L 141 133.5 L 139 133.5 L 139 132 Z " /><path fill="rgb(164,131,219)" stroke="rgb(164,131,219)" stroke-width="1" opacity="0.996078431372549" d="M 105 144 L 109 144.5 L 105 146 L 105 144 Z " /><path fill="rgb(164,131,219)" stroke="rgb(164,131,219)" stroke-width="1" opacity="0.996078431372549" d="M 126.5 145 L 125.5 147 L 126.5 145 Z " /><path fill="rgb(164,131,219)" stroke="rgb(164,131,219)" stroke-width="1" opacity="0.996078431372549" d="M 118.5 148 L 116.5 151 L 118.5 148 Z " /><path fill="rgb(164,131,219)" stroke="rgb(164,131,219)" stroke-width="1" opacity="0.996078431372549" d="M 102.5 154 L 103.5 156 L 100.5 157 L 102.5 154 Z " /><path fill="rgb(164,131,219)" stroke="rgb(164,131,219)" stroke-width="1" opacity="0.996078431372549" d="M 52 164 L 58 165.5 L 56 166 Q 57.3 169 53.5 168 L 52 164 Z " /><path fill="rgb(164,131,219)" stroke="rgb(164,131,219)" stroke-width="1" opacity="0.996078431372549" d="M 60 164 L 63 165.5 L 61 166.5 L 61.5 168 L 59 166.5 L 60 164 Z " /><path fill="rgb(164,131,219)" stroke="rgb(164,131,219)" stroke-width="1" opacity="0.996078431372549" d="M 53.5 169 L 54 171.5 L 53 175 L 51 175.5 L 54 176 L 55.5 172 L 55 173.5 L 55 177.5 L 58 183 L 60 183.5 L 58 184.5 L 61 185.5 L 59.5 190 L 59 186 Q 56 184.8 57 188.5 L 58 191.5 L 57 191.5 L 55.5 189 L 53 190.5 L 52.5 192 L 52 190.5 L 53 187.5 L 51.5 188 Q 48.9 187.2 50 190.5 Q 47.8 191.8 50.5 193 Q 52.8 192.3 52 194.5 L 48 196 Q 49.1 198.7 46.5 198 L 44.5 200 L 27.5 200 L 27.5 198 L 23 196.5 L 27 195.5 L 24 194.5 L 30 193.5 L 27 192.5 L 29.5 192 L 32 193 L 49.5 172 L 50.5 175 L 53.5 169 Z M 57 181 L 55 186 L 57 186 L 57 181 Z " /><path fill="rgb(164,131,219)" stroke="rgb(164,131,219)" stroke-width="1" opacity="0.996078431372549" d="M 66.5 187 L 65.5 189 L 63 189.5 L 63.5 191 Q 60.5 191.7 62 188 L 66.5 187 Z " /><path fill="rgb(119,107,174)" stroke="rgb(119,107,174)" stroke-width="1" opacity="0.996078431372549" d="M 130 0 L 169.5 0 L 170 1.5 L 170.5 3 L 167.5 2 L 163.5 7 Q 161.3 6.3 162 8.5 L 156 13.5 L 150.5 20 L 149 19.5 Q 149.8 21.8 147.5 21 L 148 22.5 L 142.5 28 L 140 29.5 L 134.5 36 L 133 35.5 Q 133.8 37.8 131.5 37 L 132 38.5 L 127.5 43 L 126 43 Q 127.5 46.8 124.5 46 L 122.5 46 L 118 46.5 L 125 47.5 Q 119.9 47.9 118.5 52 L 117 51.5 Q 117.8 53.8 115.5 53 L 116 54.5 L 110.5 60 L 108 61.5 L 102.5 68 L 101 67.5 Q 101.8 69.8 99.5 69 Q 101.3 71.5 96.5 74 Q 94.3 73.3 95 75.5 L 91.5 77 Q 89.3 76.3 90 78.5 L 91 81 L 94 82.5 L 92.5 82 L 74 71 L 72.5 68 Q 70.3 68.8 71 66.5 L 69 62.5 L 71 58.5 L 67 60.5 L 68 58.5 L 66 58.5 L 68.5 53 L 73.5 52 L 76.5 53 L 78.5 52 L 80.5 53 Q 98.8 44.8 121.5 41 L 123 39.5 L 122 35.5 L 122 33.5 L 121 25.5 Q 123.5 24 120 22.5 Q 120.8 20.3 118.5 21 L 115 20 Q 116 23 113 22 L 112.5 20 Q 111.2 22.3 110 19.5 L 113 19 L 113 17 Q 115.7 18.1 115 15.5 L 117.5 12 L 122 10 L 125.5 4 L 130 2 L 130 0 Z M 115 18 L 113 20 L 115 20 L 115 18 Z M 127 39 L 127 40 L 129 40 L 127 39 Z " /><path fill="rgb(119,107,174)" stroke="rgb(119,107,174)" stroke-width="1" opacity="0.996078431372549" d="M 172.5 1 Q 178.3 -0.7 177 3 L 172.5 2 L 172.5 1 Z " /><path fill="rgb(119,107,174)" stroke="rgb(119,107,174)" stroke-width="1" opacity="0.996078431372549" d="M 106 20 L 110 22.5 L 108.5 22 Q 104.8 23 106 20 Z " /><path fill="rgb(119,107,174)" stroke="rgb(119,107,174)" stroke-width="1" opacity="0.996078431372549" d="M 57.5 43 L 56.5 45 L 57.5 43 Z " /><path fill="rgb(119,107,174)" stroke="rgb(119,107,174)" stroke-width="1" opacity="0.996078431372549" d="M 55.5 72 L 56 75 L 62 79.5 L 63.5 82 L 76 90.5 L 75 92.5 L 75.5 94 L 73 92.5 L 74.5 90 L 72 90 Q 73.1 87.3 70.5 88 L 68.5 88 L 67 88.5 L 70 90 L 70 92 Q 72.7 90.9 72 93.5 L 75 97.5 L 73.5 97 L 69 96 L 70 98.5 L 66.5 104 Q 62.8 102.8 64 106.5 L 60 109.5 L 54.5 116 L 53 115.5 Q 53.8 117.8 51.5 117 L 52 118.5 L 46.5 124 L 44 125.5 L 38.5 132 L 37 131.5 Q 37.8 133.8 35.5 133 L 36 134.5 L 30.5 140 L 28 141.5 L 22.5 148 L 21 147.5 Q 21.8 149.8 19.5 149 L 20 150.5 L 14.5 156 L 12 157.5 L 6.5 164 L 4 165.5 L 3 170 Q 0.3 171.1 1 168.5 L 0 167.5 L 0 130 Q 3 131.3 2 127.5 L 10 122 L 13.5 116 L 18 114 L 21.5 108 L 26 106 L 29.5 100 L 34 98 L 37.5 92 L 42 90 L 45.5 84 L 50 82 L 52.5 78 Q 55.1 78.8 54 75.5 L 55.5 72 Z M 60 79 L 60 82 L 61 82 Q 62 78 60 79 Z M 63 83 L 63 84 L 67 86 L 68 86 L 63 83 Z " /><path fill="rgb(119,107,174)" stroke="rgb(119,107,174)" stroke-width="1" opacity="0.996078431372549" d="M 82.5 94 L 81.5 96 L 82.5 94 Z " /><path fill="rgb(119,107,174)" stroke="rgb(119,107,174)" stroke-width="1" opacity="0.996078431372549" d="M 79.5 95 L 80 97 L 78 96.5 L 79.5 95 Z " /><path fill="rgb(119,107,174)" stroke="rgb(119,107,174)" stroke-width="1" opacity="0.996078431372549" d="M 84.5 95 L 85.5 97 L 84.5 95 Z " /><path fill="rgb(119,107,174)" stroke="rgb(119,107,174)" stroke-width="1" opacity="0.996078431372549" d="M 82.5 97 L 85 98.5 L 82.5 100 L 82.5 97 Z " /><path fill="rgb(119,107,174)" stroke="rgb(119,107,174)" stroke-width="1" opacity="0.996078431372549" d="M 87.5 98 L 129.5 117 L 143 128.5 L 142.5 134 L 141 130 L 135 126.5 L 135.5 125 L 87 103 L 86.5 101 L 85 101.5 Q 84.3 99.3 86.5 100 L 89.5 101 L 91 100.5 L 87.5 99 L 87.5 98 Z M 92 101 L 92 102 L 94 102 L 92 101 Z " /><path fill="rgb(119,107,174)" stroke="rgb(119,107,174)" stroke-width="1" opacity="0.996078431372549" d="M 152.5 146 L 152 147.5 Q 152.8 149.8 150.5 149 L 150.5 151 L 148 150.5 L 152.5 146 Z " /><path fill="rgb(119,107,174)" stroke="rgb(119,107,174)" stroke-width="1" opacity="0.996078431372549" d="M 146.5 151 L 148 153.5 L 146.5 153 L 145 152.5 L 146.5 151 Z " /><path fill="rgb(119,107,174)" stroke="rgb(119,107,174)" stroke-width="1" opacity="0.996078431372549" d="M 122.5 164 L 124 164.5 L 123 166.5 L 124.5 166 L 127.5 165 L 127.5 166 L 115.5 172 L 91.5 180 L 89 179 L 88.5 181 Q 87 178.5 85.5 182 L 81.5 183 L 79.5 182 L 74.5 185 L 62 187 L 61 183.5 L 64.5 182 L 66.5 183 L 68.5 181 L 72.5 181 Q 75.8 182.1 75 179.5 L 76.5 180 Q 79.8 181.1 79 178.5 L 80.5 179 Q 83.8 180.1 83 177.5 L 84.5 178 L 87.5 176 L 90 177 L 90.5 175 L 94 176 L 94.5 174 L 95.5 175 L 97.5 173 L 98.5 174 L 100.5 172 L 101.5 173 L 103.5 171 L 104.5 172 L 112.5 168 L 122.5 164 Z " /><path fill="rgb(119,107,174)" stroke="rgb(119,107,174)" stroke-width="1" opacity="0.996078431372549" d="M 1.5 172 L 2 177.5 L 1 177.5 L 1.5 172 Z " /><path fill="rgb(119,107,174)" stroke="rgb(119,107,174)" stroke-width="1" opacity="0.996078431372549" d="M 2.5 179 L 4 182.5 L 3 182.5 L 2.5 179 Z " /><path fill="rgb(145,123,202)" stroke="rgb(145,123,202)" stroke-width="1" opacity="0.996078431372549" d="M 185.5 8 L 187 10.5 L 185 9.5 L 185.5 8 Z " /><path fill="rgb(145,123,202)" stroke="rgb(145,123,202)" stroke-width="1" opacity="0.996078431372549" d="M 181.5 10 L 188 13.5 L 186.5 14 L 182.5 12 L 181.5 10 Z " /><path fill="rgb(145,123,202)" stroke="rgb(145,123,202)" stroke-width="1" opacity="0.996078431372549" d="M 178 12 L 180 12.5 L 178 13.5 L 178 12 Z " /><path fill="rgb(145,123,202)" stroke="rgb(145,123,202)" stroke-width="1" opacity="0.996078431372549" d="M 182.5 13 Q 185.1 12.3 184 15 L 181 15.5 L 183 16 L 183 18 L 181 18 L 181 20 L 179 20 L 179 22 L 177 22 L 177 24 L 175 24 L 175 26 L 173 26 L 173 28 L 171 28 L 171 30 L 169 30 L 169 32 L 167 32 L 167 34 L 165 34 L 165 36 L 163 36 L 163 38 L 161 38 L 161 40 L 159 40 L 159 42 L 157 42 L 157 44 L 155 44 L 155 46 L 153 46 L 153 48 L 151 48 L 151 50 L 149 50 L 149 52 L 147 52 L 147 54 L 145 54 L 145 56 L 143 56 L 143 58 L 141 58 L 141 60 L 139 60 L 139 62 L 137 62 L 137 64 L 135 64 L 135 66 L 133 66 L 133 68 L 131 68 L 131 70 L 129 70 L 129 72 L 127 72 L 127 74 L 125 74 L 125 76 L 123 76 Q 124.1 78.7 121.5 78 L 116.5 83 Q 112.8 82.3 112 84.5 Q 112.8 87.1 109.5 86 L 107 85 L 106.5 89 L 104.5 86 Q 106.8 83 112 84 Q 110.9 81.3 113.5 82 L 118 74 L 120 74 L 120 72 L 122 72 Q 120.9 69.3 123.5 70 L 128 67 L 128 64 Q 131.8 65.5 131 62.5 L 134 58 L 136 58 L 136 56 L 138 56 Q 136.9 53.3 139.5 54 L 144 51 L 144 48 Q 147.8 49.5 147 46.5 L 150 42 L 152 42 L 152 40 L 154 40 Q 152.9 37.3 155.5 38 L 160 35 L 160 32 Q 163.7 33.5 163 30.5 L 166 26 L 168 26 L 168 24 L 170 24 Q 168.9 21.3 171.5 22 L 176 19 Q 174.8 16 178.5 17 L 180 14 L 182.5 13 Z " /><path fill="rgb(145,123,202)" stroke="rgb(145,123,202)" stroke-width="1" opacity="0.996078431372549" d="M 194.5 14 L 195.5 16 L 194.5 14 Z " /><path fill="rgb(145,123,202)" stroke="rgb(145,123,202)" stroke-width="1" opacity="0.996078431372549" d="M 110.5 88 L 111 90 L 109 89.5 L 110.5 88 Z " /><path fill="rgb(145,123,202)" stroke="rgb(145,123,202)" stroke-width="1" opacity="0.996078431372549" d="M 86 105 Q 90.9 104.9 93 108.5 L 90 109 Q 91.1 111.7 88.5 111 L 87 114 L 85 114 L 85 116 L 83 116 L 83 118 L 81 118 L 81 120 L 79 120 L 79 122 L 77 122 L 77 124 L 75 124 L 75 126 L 73 126 L 73 128 L 71 128 L 71 130 L 69 130 L 69 132 L 67 132 L 67 134 L 65 134 L 65 136 L 63 136 L 63 138 L 61 138 L 61 140 L 59 140 L 59 142 L 57 142 L 57 144 L 55 144 L 55 146 L 53 146 L 53 148 L 51 148 L 51 150 L 49 150 L 49 152 L 47 152 L 47 154 L 45 154 L 45 156 L 43 156 L 43 158 L 41 158 L 41 160 L 39 160 L 39 162 L 37 162 L 37 164 L 35 164 L 35 166 L 33 166 L 33 168 L 29 170 L 29 172 L 27 172 L 27 174 L 25 174 L 25 176 L 23 176 L 23 178 L 21 178 L 21 180 L 19 180 L 19 182 L 17 182 L 17 184 L 13 184 L 14.5 181 Q 16.8 181.8 16 179.5 L 16 177.5 L 16 176 Q 19.7 177.5 19 174.5 L 22 170 L 24 170 L 24 168 L 26 168 Q 24.9 165.3 27.5 166 L 32 163 L 32 160 Q 35.8 161.5 35 158.5 L 38 154 L 40 154 L 40 152 L 42 152 Q 40.9 149.3 43.5 150 L 48 147 L 48 144 Q 51.7 145.5 51 142.5 L 54 138 L 56 138 L 56 136 L 58 136 Q 56.9 133.3 59.5 134 L 64 131 L 64 128 Q 67.8 129.5 67 126.5 L 70 122 L 72 122 L 72 120 L 74 120 Q 72.9 117.3 75.5 118 L 80 115 Q 78.5 111.3 81.5 112 L 81.5 111 L 80 110.5 L 84 110 L 84.5 108 L 86 108.5 L 86 105 Z " /><path fill="rgb(145,123,202)" stroke="rgb(145,123,202)" stroke-width="1" opacity="0.996078431372549" d="M 14.5 176 L 14 177.5 L 11 184.5 L 11.5 186 L 10 185.5 Q 9.2 188.1 12.5 187 L 12.5 188 Q 9.2 186.9 10 189.5 L 9 189.5 L 8 186.5 L 9.5 184 Q 6.9 184.7 8 182 L 12 179.5 L 14.5 176 Z " /><path fill="rgb(145,123,202)" stroke="rgb(145,123,202)" stroke-width="1" opacity="0.996078431372549" d="M 15.5 194 L 16 196 L 18 196.5 L 16.5 197 L 15.5 194 Z " /><path fill="rgb(157,128,212)" stroke="rgb(157,128,212)" stroke-width="1" opacity="0.996078431372549" d="M 193.5 16 L 196 17.5 L 195 20 Q 197.7 18.9 197 21.5 L 199 21.5 L 198 25.5 L 198.5 27 L 196.5 24 L 196 26.5 L 197 29.5 L 196 29.5 L 194.5 26 L 194 29 L 191 30.5 L 191 32.5 L 128.5 95 L 126.5 94 L 122.5 96 L 118.5 94 L 117 93.5 L 118.5 93 L 120 93.5 Q 120.8 91.3 118.5 92 L 118.5 91 L 122 89.5 Q 121.3 87.3 123.5 88 L 129 84.5 Q 130.6 77.6 136.5 75 Q 138.8 75.8 138 73.5 L 146 67 L 152.5 59 Q 154.8 59.8 154 57.5 L 162 51 L 168.5 43 Q 170.8 43.8 170 41.5 L 178 35 L 184.5 27 Q 186.8 27.8 186 25.5 L 193.5 16 Z M 194 18 L 193 21 L 194 21 L 194 18 Z " /><path fill="rgb(157,128,212)" stroke="rgb(157,128,212)" stroke-width="1" opacity="0.996078431372549" d="M 125 96 L 128.5 97 L 130.5 96 L 130.5 97 L 128 98.5 L 131 99.5 L 128.5 100 L 126.5 97 L 125 97.5 L 125 96 Z " /><path fill="rgb(157,128,212)" stroke="rgb(157,128,212)" stroke-width="1" opacity="0.996078431372549" d="M 135.5 102 L 136.5 104 L 135.5 102 Z " /><path fill="rgb(157,128,212)" stroke="rgb(157,128,212)" stroke-width="1" opacity="0.996078431372549" d="M 138.5 104 L 139.5 106 L 138.5 104 Z " /><path fill="rgb(157,128,212)" stroke="rgb(157,128,212)" stroke-width="1" opacity="0.996078431372549" d="M 141.5 106 L 152 114.5 L 147.5 111 Q 142.3 109.3 141.5 106 Z " /><path fill="rgb(157,128,212)" stroke="rgb(157,128,212)" stroke-width="1" opacity="0.996078431372549" d="M 98.5 111 L 101.5 112 L 103.5 112 L 109.5 115 L 111 114.5 L 110.5 116 L 113.5 115 L 113.5 116 L 107.5 117 L 105.5 116 L 105.5 118 Q 103.3 117.3 104 119.5 Q 100.3 120.8 101 125 L 97.5 126 L 64.5 159 L 58 161.5 L 61.5 162 L 63.5 161 Q 66.5 162.5 63.5 164 Q 59.1 162.5 60 165.5 L 56 168 Q 54.9 165.3 57.5 166 L 57.5 165 L 52 164 L 53.5 168 Q 55.8 167.3 55 169.5 L 53 169.5 L 51 174.5 L 51.5 176 Q 49.2 170.7 47 174.5 L 47 176.5 L 32 191.5 L 32 193 L 30 193.5 L 32 194.5 L 30.5 195 Q 29.3 192.8 24.5 194 L 24.5 195 L 29 196.5 L 27.5 197 L 23.5 196 L 23.5 197 L 28 198.5 L 25.5 199 Q 24.1 196.4 19.5 197 L 18 197.5 L 19.5 195 L 17 194.5 L 20 193.5 L 18 192.5 L 26 187 L 32.5 179 Q 34.8 179.8 34 177.5 L 42 171 L 48.5 163 L 52 162 L 52 159.5 L 56.5 155 Q 58.8 155.8 58 153.5 L 66 147 L 72.5 139 Q 74.8 139.8 74 137.5 L 82 131 L 88.5 123 Q 90.8 123.8 90 121.5 L 94.5 117 L 96.5 117 L 100 114.5 L 98 114 L 98.5 111 Z M 50 168 L 51 170 L 53 169 L 50 168 Z M 22 191 L 20 193 L 22 193 L 22 191 Z M 28 192 L 28 193 L 30 193 L 28 192 Z " /><path fill="rgb(157,128,212)" stroke="rgb(157,128,212)" stroke-width="1" opacity="0.996078431372549" d="M 115.5 116 L 116 118 L 114 117.5 L 115.5 116 Z " /><path fill="rgb(157,128,212)" stroke="rgb(157,128,212)" stroke-width="1" opacity="0.996078431372549" d="M 124.5 120 L 125.5 122 L 124.5 120 Z " /><path fill="rgb(157,128,212)" stroke="rgb(157,128,212)" stroke-width="1" opacity="0.996078431372549" d="M 128.5 122 L 129.5 124 L 128.5 122 Z " /><path fill="rgb(157,128,212)" stroke="rgb(157,128,212)" stroke-width="1" opacity="0.996078431372549" d="M 137.5 138 L 136.5 140 L 137.5 138 Z " /><path fill="rgb(157,128,212)" stroke="rgb(157,128,212)" stroke-width="1" opacity="0.996078431372549" d="M 129.5 140 L 130.5 142 L 129.5 140 Z " /><path fill="rgb(157,128,212)" stroke="rgb(157,128,212)" stroke-width="1" opacity="0.996078431372549" d="M 133.5 141 L 132.5 143 L 133.5 141 Z " /><path fill="rgb(157,128,212)" stroke="rgb(157,128,212)" stroke-width="1" opacity="0.996078431372549" d="M 128.5 144 L 127.5 146 L 128.5 144 Z " /><path fill="rgb(157,128,212)" stroke="rgb(157,128,212)" stroke-width="1" opacity="0.996078431372549" d="M 124.5 146 L 123.5 148 L 122 147.5 L 124.5 146 Z " /><path fill="rgb(157,128,212)" stroke="rgb(157,128,212)" stroke-width="1" opacity="0.996078431372549" d="M 109.5 152 L 111 152.5 L 107.5 154 L 107.5 153 L 109.5 152 Z " /><path fill="rgb(157,128,212)" stroke="rgb(157,128,212)" stroke-width="1" opacity="0.996078431372549" d="M 146.5 155 L 147.5 157 L 146.5 155 Z " /><path fill="rgb(157,128,212)" stroke="rgb(157,128,212)" stroke-width="1" opacity="0.996078431372549" d="M 88.5 158 L 91 159.5 L 87.5 161 L 88 159.5 L 88.5 158 Z " /><path fill="rgb(157,128,212)" stroke="rgb(157,128,212)" stroke-width="1" opacity="0.996078431372549" d="M 139.5 160 L 140.5 162 L 139.5 160 Z " /><path fill="rgb(157,128,212)" stroke="rgb(157,128,212)" stroke-width="1" opacity="0.996078431372549" d="M 77.5 161 L 80.5 162 L 82 161.5 L 80.5 163 L 66.5 166 L 66.5 165 L 74.5 162 L 77 163 L 77.5 161 Z " /><path fill="rgb(157,128,212)" stroke="rgb(157,128,212)" stroke-width="1" opacity="0.996078431372549" d="M 61.5 166 L 65 166.5 L 61.5 167 L 61.5 166 Z " /><path fill="rgb(157,128,212)" stroke="rgb(157,128,212)" stroke-width="1" opacity="0.996078431372549" d="M 54.5 172 L 55.5 174 L 54 173.5 L 53.5 175 L 53 173.5 L 54.5 172 Z " /><path fill="rgb(157,128,212)" stroke="rgb(157,128,212)" stroke-width="1" opacity="0.996078431372549" d="M 55.5 176 L 56.5 178 Q 53.7 178.7 55.5 176 Z " /><path fill="rgb(157,128,212)" stroke="rgb(157,128,212)" stroke-width="1" opacity="0.996078431372549" d="M 58.5 184 L 61 184.5 L 58.5 185 L 58.5 184 Z " /><path fill="rgb(178,133,221)" stroke="rgb(178,133,221)" stroke-width="1" opacity="0.9921568627450981" d="M 199.5 24 L 200 26.5 L 199 26.5 L 199.5 24 Z " /><path fill="rgb(178,133,221)" stroke="rgb(178,133,221)" stroke-width="1" opacity="0.9921568627450981" d="M 120.5 35 L 122 39.5 L 120.5 39 L 114 37.5 L 116.5 36 L 120 37 L 120.5 35 Z " /><path fill="rgb(178,133,221)" stroke="rgb(178,133,221)" stroke-width="1" opacity="0.9921568627450981" d="M 93.5 42 L 94 44 L 100 44 L 100 46 L 91.5 46 L 90 44.5 Q 89.3 42.3 91.5 43 L 93 43.5 L 93.5 42 Z " /><path fill="rgb(178,133,221)" stroke="rgb(178,133,221)" stroke-width="1" opacity="0.9921568627450981" d="M 107.5 42 L 110 42.5 L 107.5 43 L 107.5 42 Z " /><path fill="rgb(178,133,221)" stroke="rgb(178,133,221)" stroke-width="1" opacity="0.9921568627450981" d="M 104.5 43 L 106 43.5 L 102.5 45 L 102.5 44 L 104.5 43 Z " /><path fill="rgb(178,133,221)" stroke="rgb(178,133,221)" stroke-width="1" opacity="0.9921568627450981" d="M 68.5 65 L 69.5 67 L 68.5 65 Z " /><path fill="rgb(178,133,221)" stroke="rgb(178,133,221)" stroke-width="1" opacity="0.9921568627450981" d="M 72.5 69 L 73.5 71 L 72.5 69 Z " /><path fill="rgb(178,133,221)" stroke="rgb(178,133,221)" stroke-width="1" opacity="0.9921568627450981" d="M 199.5 74 L 200 116 Q 197 115 198 118 L 193.5 118 Q 190.8 119.3 192 124.5 L 188.5 128 L 184 130 L 184 132 L 182 132 L 182 134 Q 179.3 132.9 180 135.5 L 176 138 Q 176.8 142.7 172.5 144 L 168 146 L 168 148 L 166 148 L 166 150 Q 163.3 148.9 164 151.5 L 157 156.5 Q 157.8 160.3 155.5 161 L 152 162 L 152 164 L 150 164 L 150 166 Q 147.3 164.9 148 167.5 L 144 170 Q 145.5 173.8 142.5 173 L 137 175.5 L 138 177.5 L 136 178 L 136 180 L 134 180 L 134 182 Q 131.3 180.9 132 183.5 L 128 186 L 126 192 L 122 192 L 120 196 L 116 196 L 116 197.5 L 113.5 200 L 75 200 L 76 196 L 79.5 195 L 81.5 196 Q 85.1 193.9 85 189 L 79 187.5 Q 80.3 184.8 85.5 186 L 87.5 186 L 89 185.5 L 88.5 184 L 90 183.5 L 88 182.5 L 127.5 168 L 145 157.5 Q 144.3 155.3 146.5 156 L 151 150 Q 154 151.3 153 147.5 L 156 141.5 L 155.5 140 L 157 140.5 L 156 138.5 L 158 138.5 L 157 135.5 L 158 135.5 L 158.5 137 L 160 131.5 L 158.5 125 L 157.5 127 L 157 125.5 L 158.5 123 L 156.5 124 L 157 122.5 L 156 118.5 L 156 116.5 Q 156.8 114.3 154.5 115 L 154.5 117 L 152.5 114 L 154 114.5 Q 154.8 112.3 152.5 113 L 152.5 112 L 154 112 L 154 108 L 158.5 108 L 160 111 L 157 112.5 L 158 114.5 L 157 116.5 L 160.5 116 L 162 116 L 162 114 Q 164.7 115.1 164 112.5 L 163 110.5 L 164 108 L 168 107 L 168 104 Q 171.7 105.5 171 102.5 L 172 100 L 175.5 99 L 178 100 L 178 98 Q 180.7 99.1 180 96.5 L 179 94.5 L 180 92 L 184 91 L 184 88 Q 187.8 89.5 187 86.5 L 188 84 L 191.5 83 L 193.5 84 L 196 80 L 194 79.5 L 197.5 75 L 199.5 74 Z M 157 148 L 155 151 L 157 151 L 157 148 Z M 142 166 Q 141 169 144 168 Q 145 165 142 166 Z M 98 180 L 98 181 L 100 181 L 98 180 Z M 92 182 L 92 183 L 94 183 L 92 182 Z " /><path fill="rgb(178,133,221)" stroke="rgb(178,133,221)" stroke-width="1" opacity="0.9921568627450981" d="M 61.5 78 L 62.5 80 L 61.5 78 Z " /><path fill="rgb(178,133,221)" stroke="rgb(178,133,221)" stroke-width="1" opacity="0.9921568627450981" d="M 142.5 106 L 141.5 108 L 142.5 106 Z " /><path fill="rgb(178,133,221)" stroke="rgb(178,133,221)" stroke-width="1" opacity="0.9921568627450981" d="M 144.5 109 L 145.5 111 L 144.5 109 Z " /><path fill="rgb(178,133,221)" stroke="rgb(178,133,221)" stroke-width="1" opacity="0.9921568627450981" d="M 150.5 109 L 151 111 L 149 110.5 L 150.5 109 Z " /><path fill="rgb(178,133,221)" stroke="rgb(178,133,221)" stroke-width="1" opacity="0.9921568627450981" d="M 129.5 126 L 128.5 128 L 129.5 126 Z " /><path fill="rgb(178,133,221)" stroke="rgb(178,133,221)" stroke-width="1" opacity="0.9921568627450981" d="M 137.5 130 L 139 133.5 L 138 138 L 135.5 139 L 133 138 Q 131.9 140.7 134.5 140 L 134.5 141 L 133 141.5 L 133.5 143 L 131.5 142 L 130.5 145 L 130.5 143 L 128.5 144 L 128 139.5 L 128.5 137 L 132.5 138 L 132 136.5 Q 131 132 133.5 131 L 137 132 L 137.5 134 L 138 131.5 L 137.5 130 Z " /><path fill="rgb(178,133,221)" stroke="rgb(178,133,221)" stroke-width="1" opacity="0.9921568627450981" d="M 137.5 139 L 136.5 141 L 137.5 139 Z " /><path fill="rgb(178,133,221)" stroke="rgb(178,133,221)" stroke-width="1" opacity="0.9921568627450981" d="M 117.5 144 L 120.5 145 L 123.5 144 L 125 145.5 L 124.5 148 L 122 146.5 L 124 145.5 L 121.5 145 L 118.5 146 L 117.5 144 Z " /><path fill="rgb(178,133,221)" stroke="rgb(178,133,221)" stroke-width="1" opacity="0.9921568627450981" d="M 115.5 145 Q 118.5 146.5 115.5 148 L 115.5 145 Z " /><path fill="rgb(178,133,221)" stroke="rgb(178,133,221)" stroke-width="1" opacity="0.9921568627450981" d="M 109.5 148 Q 114.3 147.3 116 149.5 L 114.5 150 L 112.5 149 L 112.5 151 L 108 149.5 L 109.5 148 Z " /><path fill="rgb(178,133,221)" stroke="rgb(178,133,221)" stroke-width="1" opacity="0.9921568627450981" d="M 96.5 153 L 101 154.5 L 98.5 155 L 96.5 153 Z " /><path fill="rgb(178,133,221)" stroke="rgb(178,133,221)" stroke-width="1" opacity="0.9921568627450981" d="M 78.5 184 L 81 184.5 L 76.5 187 L 76 185 L 78.5 184 Z " /><path fill="rgb(178,133,221)" stroke="rgb(178,133,221)" stroke-width="1" opacity="0.9921568627450981" d="M 74.5 188 L 77 188.5 L 74.5 189 L 74.5 188 Z " /><path fill="rgb(178,133,221)" stroke="rgb(178,133,221)" stroke-width="1" opacity="0.9921568627450981" d="M 68.5 190 L 73 190.5 L 68.5 191 L 68.5 190 Z " /><path fill="rgb(178,133,221)" stroke="rgb(178,133,221)" stroke-width="1" opacity="0.9921568627450981" d="M 77.5 190 L 80 190.5 L 78 191.5 L 80 192.5 L 76.5 193 L 74 191.5 L 77.5 190 Z " /><path fill="rgb(146,123,203)" stroke="rgb(146,123,203)" stroke-width="1" opacity="1" d="M 184.5 6 L 184 7.5 L 185 9.5 L 182 10 L 184.5 6 Z " /><path fill="rgb(146,123,203)" stroke="rgb(146,123,203)" stroke-width="1" opacity="1" d="M 190.5 10 L 193 14.5 L 191 15.5 L 191.5 14 L 189 14.5 L 189.5 16 L 185.5 14 L 185 16 Q 188.7 14.5 188 17.5 L 180 24.5 L 177.5 28 L 172 32.5 L 169.5 36 L 164 40.5 L 161.5 44 L 156 48.5 L 153.5 52 L 148 56.5 L 145.5 60 L 140 64.5 L 137.5 68 L 132 72.5 L 129.5 76 L 124 80.5 L 125 82.5 L 121 85.5 L 120.5 84 L 117.5 88 L 119 88.5 L 116 89 Q 117.3 92 113.5 91 L 111.5 91 L 110 90.5 L 114 89.5 L 112.5 88 L 108.5 90 L 107 88.5 Q 105.5 84.1 108.5 85 L 112 86 L 113.5 83 L 116.5 83 L 123 78 L 123 76 L 125 76 L 125 74 L 127 74 L 127 72 L 129 72 L 129 70 L 131 70 L 131 68 L 133 68 L 133 66 L 135 66 L 135 64 L 137 64 L 137 62 L 139 62 L 139 60 L 141 60 L 141 58 L 143 58 L 143 56 L 145 56 L 145 54 L 147 54 L 147 52 L 149 52 L 149 50 L 151 50 L 151 48 L 153 48 L 153 46 L 155 46 L 155 44 L 157 44 L 157 42 L 159 42 L 159 40 L 161 40 L 161 38 L 163 38 L 163 36 L 165 36 L 165 34 L 167 34 L 167 32 L 169 32 L 169 30 L 173 28 L 173 26 L 175 26 L 175 24 L 177 24 L 177 22 L 179 22 L 179 20 L 181 20 L 181 18 L 183 18 L 183 16 L 181 15.5 L 185 13.5 L 184.5 12 L 188.5 14 L 191 12.5 L 190.5 10 Z " /><path fill="rgb(146,123,203)" stroke="rgb(146,123,203)" stroke-width="1" opacity="1" d="M 177.5 12 L 178 14 L 176 13.5 L 177.5 12 Z " /><path fill="rgb(146,123,203)" stroke="rgb(146,123,203)" stroke-width="1" opacity="1" d="M 91.5 106 L 95 107.5 L 94.5 109 L 96.5 108 L 97 109.5 L 96.5 112 L 94.5 112 Q 91.2 110.9 92 113.5 L 84 120.5 L 81.5 124 L 76 128.5 L 73.5 132 L 68 136.5 L 65.5 140 L 60 144.5 L 57.5 148 L 52 152.5 L 49.5 156 L 44 160.5 L 41.5 164 L 36 168.5 L 33.5 172 L 28 176.5 L 25.5 180 L 20 184.5 L 17.5 188 L 15 188.5 L 15.5 190 L 13.5 189 L 11 190.5 L 13 186.5 L 11.5 187 L 10 186.5 L 12 186 L 12.5 184 L 14.5 184 L 17 184 L 17 182 L 19 182 L 19 180 L 21 180 L 21 178 L 23 178 L 23 176 L 25 176 L 25 174 L 27 174 L 27 172 L 29 172 L 29 170 L 31 170 L 31 168 L 33 168 L 33 166 L 35 166 L 35 164 L 37 164 L 37 162 L 39 162 L 39 160 L 41 160 L 41 158 L 43 158 L 43 156 L 45 156 L 45 154 L 47 154 L 47 152 L 49 152 L 49 150 L 51 150 L 51 148 L 53 148 L 53 146 L 55 146 L 55 144 L 57 144 L 57 142 L 59 142 L 59 140 L 61 140 L 61 138 L 63 138 L 63 136 L 65 136 L 65 134 L 67 134 L 67 132 L 69 132 L 69 130 L 71 130 L 71 128 L 73 128 L 73 126 L 75 126 L 75 124 L 77 124 L 77 122 L 79 122 L 79 120 L 81 120 L 81 118 L 83 118 L 83 116 L 85 116 L 85 114 Q 87.7 115.1 87 112.5 L 90 111 Q 88.8 108 92.5 109 L 91.5 106 Z M 14 185 L 14 188 L 16 187 Q 17 184 14 185 Z " /><path fill="rgb(146,123,203)" stroke="rgb(146,123,203)" stroke-width="1" opacity="1" d="M 85.5 108 L 86.5 110 L 85.5 108 Z " /><path fill="rgb(146,123,203)" stroke="rgb(146,123,203)" stroke-width="1" opacity="1" d="M 7.5 183 L 7 184.5 L 7.5 186 L 9 185.5 L 8 187.5 L 8.5 189 L 6 184.5 L 7.5 183 Z " /><path fill="rgb(146,123,203)" stroke="rgb(146,123,203)" stroke-width="1" opacity="1" d="M 13.5 191 L 14.5 193 Q 11.7 193.7 13.5 191 Z " /><path fill="rgb(169,132,222)" stroke="rgb(169,132,222)" stroke-width="1" opacity="0.996078431372549" d="M 199.5 45 L 200 73.5 L 196 76.5 L 194 79.5 L 196 80 L 193.5 84 L 190.5 83 L 188 84 L 187 88 L 184 88 Q 185.5 91.8 182.5 91 L 180 92 L 179 95.5 L 180 98 L 178 98 Q 179.1 100.7 176.5 100 L 174.5 99 L 172 100 L 171 104 L 168 104 Q 169.5 107.8 166.5 107 L 164 108 L 163 111.5 L 164 114 L 162 114 Q 163.1 116.7 160.5 116 L 157 117.5 L 158 119.5 Q 156.8 122.3 155.5 120 L 154 119.5 L 155 116.5 L 152.5 114 L 150.5 113 Q 148.7 115.8 147 111.5 L 149.5 113 L 151 111.5 L 149.5 108 L 146.5 109 L 143 106.5 L 143.5 105 L 140.5 107 L 140.5 105 Q 138.3 105.8 139 103.5 L 138.5 102 L 142 101 L 144.5 95 L 149 96 L 150.5 93 L 154 92 L 154 90 Q 156.7 91.1 156 88.5 L 158.5 85 L 164 82.5 L 166.5 77 L 170 76 L 170 74 Q 172.7 75.1 172 72.5 L 174.5 69 L 180 66.5 L 182.5 61 L 186 60 L 186 58 Q 188.7 59.1 188 56.5 L 190.5 53 L 196 50.5 L 199.5 45 Z M 148 97 L 144 98 Q 143 102 148 100 L 148 97 Z M 154 108 L 154 112 L 153 112 L 153 113 Q 155 112 154 115 L 157 114 L 159 115 L 157 113 L 159 111 Q 161 112 160 110 Q 159 107 154 108 Z " /><path fill="rgb(169,132,222)" stroke="rgb(169,132,222)" stroke-width="1" opacity="0.996078431372549" d="M 70.5 67 L 71.5 69 L 70.5 67 Z " /><path fill="rgb(169,132,222)" stroke="rgb(169,132,222)" stroke-width="1" opacity="0.996078431372549" d="M 134.5 97 L 135.5 99 L 134.5 97 Z " /><path fill="rgb(169,132,222)" stroke="rgb(169,132,222)" stroke-width="1" opacity="0.996078431372549" d="M 120.5 121 L 130 124 L 130.5 126 L 132 125.5 L 131.5 127 L 138 129.5 L 138 131.5 Q 136.9 134.8 139.5 134 L 141 133.5 L 139 136.5 Q 141.3 137.7 138.5 139 L 137 132 L 133.5 131 Q 131 132 132 136.5 L 134.5 138 L 137 136.5 L 135.5 140 Q 131.8 141 133 138 L 129.5 138 Q 126.6 139.6 127.5 145 L 126 144.5 L 125.5 146 L 123 145.5 L 123.5 144 L 121 144.5 L 122 146.5 L 121.5 149 L 120 148.5 Q 120.8 150.8 118.5 150 L 115.5 149 L 114 149.5 L 115 151.5 L 112 149.5 L 114 148.5 L 109.5 148 L 108.5 150 L 112 151.5 L 108.5 153 Q 107.3 150.8 106 153.5 L 106.5 155 L 103.5 153 L 103.5 155 Q 102 152.5 100.5 156 Q 96.1 157.5 97 154.5 L 97.5 153 L 95 154.5 L 95.5 156 L 92.5 155 L 88 156.5 L 91 157 L 92 159.5 L 89.5 158 L 85 159 Q 86.1 156.3 83.5 157 L 85.5 154 L 91.5 155 L 91.5 154 L 90 153.5 L 92 153 L 94.5 149 L 99.5 150 Q 104 148 100.5 146 Q 94.4 147.3 95 144.5 Q 95.8 142.3 99.5 143 L 101 143.5 L 102.5 141 L 106 140 L 106 138 Q 108.7 139.1 108 136.5 L 110.5 133 L 116 130.5 L 117 126 Q 114 127 115 124 L 118 124 Q 116.9 121.3 119.5 122 L 120.5 121 Z M 124 123 L 123 125 L 126 124 L 124 123 Z M 125 126 L 125 127 L 127 127 L 125 126 Z M 129 126 L 128 128 L 130 127 L 129 126 Z M 105 144 L 105 146 L 109 145 L 105 144 Z M 115 144 L 116 148 Q 118 147 116 146 Q 117 143 115 144 Z M 119 145 L 119 146 L 121 146 L 119 145 Z M 118 147 L 118 149 L 120 148 L 118 147 Z M 101 153 L 98 155 L 101 155 L 101 153 Z " /><path fill="rgb(169,132,222)" stroke="rgb(169,132,222)" stroke-width="1" opacity="0.996078431372549" d="M 156.5 122 L 159 123.5 L 158.5 126 L 156.5 122 Z " /><path fill="rgb(169,132,222)" stroke="rgb(169,132,222)" stroke-width="1" opacity="0.996078431372549" d="M 158.5 128 L 160 134 L 158 134 L 158.5 128 Z " /><path fill="rgb(169,132,222)" stroke="rgb(169,132,222)" stroke-width="1" opacity="0.996078431372549" d="M 93.5 156 L 92.5 158 L 93.5 156 Z " /><path fill="rgb(169,132,222)" stroke="rgb(169,132,222)" stroke-width="1" opacity="0.996078431372549" d="M 144.5 157 L 143.5 159 L 144.5 157 Z " /><path fill="rgb(169,132,222)" stroke="rgb(169,132,222)" stroke-width="1" opacity="0.996078431372549" d="M 78.5 159 L 79.5 161 L 83.5 160 L 84.5 162 L 80.5 161 L 78.5 161 L 74.5 162 L 73.5 160 L 75.5 161 L 78.5 159 Z " /><path fill="rgb(169,132,222)" stroke="rgb(169,132,222)" stroke-width="1" opacity="0.996078431372549" d="M 64.5 161 L 64.5 163 L 66.5 162 L 65.5 164 Q 63.3 163.3 64 165.5 L 62 164.5 L 64 163.5 Q 61.8 162.3 64.5 161 Z " /><path fill="rgb(169,132,222)" stroke="rgb(169,132,222)" stroke-width="1" opacity="0.996078431372549" d="M 69.5 161 L 73 162.5 L 67.5 165 L 68.5 163 L 70 162.5 L 69.5 161 Z " /><path fill="rgb(169,132,222)" stroke="rgb(169,132,222)" stroke-width="1" opacity="0.996078431372549" d="M 136.5 162 L 135.5 164 L 136.5 162 Z " /><path fill="rgb(169,132,222)" stroke="rgb(169,132,222)" stroke-width="1" opacity="0.996078431372549" d="M 57.5 180 L 56.5 182 L 57.5 180 Z " /><path fill="rgb(169,132,222)" stroke="rgb(169,132,222)" stroke-width="1" opacity="0.996078431372549" d="M 97.5 180 L 102 181.5 L 100.5 182 L 97.5 181 L 96 181.5 L 97.5 180 Z " /><path fill="rgb(169,132,222)" stroke="rgb(169,132,222)" stroke-width="1" opacity="0.996078431372549" d="M 88.5 181 L 90 181.5 L 88 182.5 L 90 183.5 L 88 184.5 L 88.5 186 L 86.5 187 Q 85.3 184.7 80.5 186 L 79.5 188 L 85 189 Q 85.1 193.9 81.5 196 L 78.5 195 L 76 196 L 75 200 L 45 199.5 L 48 198 Q 46.8 195 50.5 196 L 52 193 L 49 191.5 L 50 188 L 52.5 187 L 53.5 190 L 55.5 189 L 57.5 192 L 58 189.5 L 57 186 L 54 184.5 L 56 184.5 L 56.5 183 L 57 186 Q 60.3 184.7 59 189.5 L 60 189.5 L 60.5 186 L 62 191 L 64 190.5 L 63.5 189 L 70.5 186 L 70.5 188 Q 73.1 188.7 72 186 L 74.5 186 L 76 185.5 L 76.5 187 L 81 185 L 81.5 183 L 83.5 184 L 88.5 181 Z M 74 187 L 74 189 L 77 189 L 74 187 Z M 69 190 L 69 191 L 73 191 L 69 190 Z M 78 190 L 74 192 L 77 193 L 80 193 L 78 192 L 80 191 L 78 190 Z " /><path fill="rgb(169,132,222)" stroke="rgb(169,132,222)" stroke-width="1" opacity="0.996078431372549" d="M 91.5 182 L 94 182.5 L 91.5 183 L 91.5 182 Z " /><path fill="rgb(254,254,253)" stroke="rgb(254,254,253)" stroke-width="1" opacity="1" d="M 114.5 22 Q 122.8 19.3 120 27.5 L 122 35 L 112.5 36 L 83.5 44 L 72.5 49 L 66 54.5 L 65 61.5 L 75.5 73 L 92.5 84 L 135.5 104 Q 146.7 109.8 154 119.5 Q 157.8 124.2 158 132.5 Q 156.3 142.8 149.5 148 Q 137.9 157.9 122.5 164 L 93.5 174 L 59.5 183 L 58 181.5 L 56 170.5 L 57.5 169 L 87.5 162 L 111.5 154 L 129.5 146 L 142 136.5 Q 145 134.5 144 128.5 L 138.5 122 L 131.5 117 L 83.5 94 Q 68.5 86.5 58 74.5 L 52 63.5 L 52 53.5 Q 55.3 44.8 62.5 40 L 77.5 32 L 114.5 22 Z " /><path fill="rgb(188,119,211)" stroke="rgb(188,119,211)" stroke-width="1" opacity="0.996078431372549" d="M 110.5 37 L 118.5 38 L 121 39.5 L 117.5 41 L 115.5 41 L 113.5 42 L 111 41 L 110.5 43 L 107 42 L 106.5 44 L 104.5 43 L 100.5 45 L 94 44 Q 92.3 39.5 97.5 41 L 110.5 37 Z " /><path fill="rgb(188,119,211)" stroke="rgb(188,119,211)" stroke-width="1" opacity="0.996078431372549" d="M 91.5 42 Q 93.8 41.3 93 43.5 L 91.5 42 Z " /><path fill="rgb(188,119,211)" stroke="rgb(188,119,211)" stroke-width="1" opacity="0.996078431372549" d="M 87.5 43 L 90 43.5 L 87.5 44 L 87.5 43 Z " /><path fill="rgb(188,119,211)" stroke="rgb(188,119,211)" stroke-width="1" opacity="0.996078431372549" d="M 198 116 L 200 116.5 L 200 173.5 Q 197.7 174.8 199 179.5 L 195.5 186 L 194 186.5 L 195 187.5 L 187.5 195 L 184.5 197 Q 183 194.5 181.5 198 L 173.5 200 L 114.5 200 L 116 197.5 L 116 196 L 120 196 L 122 192 L 126 192 L 126 190.5 Q 128.8 189.4 128 186 L 132 183.5 L 132 182 L 134 182 L 134 180 L 136 180 Q 134.9 177.3 137.5 178 L 137 176.5 L 138.5 174 L 144 173 Q 142.5 169.2 145.5 170 L 148 166 L 150 166 L 150 164 L 152 164 Q 150.9 161.3 153.5 162 L 157 159.5 Q 156.3 154.8 159.5 154 Q 163.5 154.5 164 151.5 L 164 150 L 166 150 L 166 148 L 168 148 Q 166.9 145.3 169.5 146 L 176 140.5 Q 174.9 137.2 177.5 138 L 180 134 L 182 134 L 182 132 L 184 132 Q 182.9 129.3 185.5 130 L 192 124.5 Q 190.8 119.3 193.5 118 Q 199.3 119.7 198 116 Z " /><path fill="rgb(188,119,211)" stroke="rgb(188,119,211)" stroke-width="1" opacity="0.996078431372549" d="M 156.5 148 L 157 151 L 159 151.5 L 157.5 152 L 155 150.5 L 156.5 148 Z " /><path fill="rgb(188,119,211)" stroke="rgb(188,119,211)" stroke-width="1" opacity="0.996078431372549" d="M 150.5 156 L 152 158.5 L 149.5 160 L 149.5 159 L 151 158.5 L 150.5 156 Z " /><path fill="rgb(188,119,211)" stroke="rgb(188,119,211)" stroke-width="1" opacity="0.996078431372549" d="M 142 166 Q 145 165 144 168 Q 141 169 142 166 Z " /></svg>